<svg width="3161" height="507" viewBox="0 0 3161 507" fill="none" xmlns="http://www.w3.org/2000/svg">
<g clip-path="url(#clip0_235_541)">
<path fill-rule="evenodd" clip-rule="evenodd" d="M2563.74 338.246C2568.97 319.384 2583.3 306.11 2616.83 290.042L2645.82 276.07L2652.11 290.042C2660.49 308.206 2656.65 319.384 2631.85 348.375C2611.94 372.128 2597.27 383.654 2587.49 383.654C2574.21 383.654 2604.92 351.523 2612.14 343.405C2622.74 330.834 2628.67 323.427 2639.21 308.22C2608.03 327.075 2592.84 340.118 2568.06 365.893C2561.78 367.989 2560.24 351.518 2563.74 338.246Z" fill="#7FCC38"/>
<path d="M2568.06 365.893C2575.05 363.448 2636.5 310.926 2639.21 308.22C2608.03 327.075 2592.84 340.118 2568.06 365.893Z" fill="#6DAD31"/>
<path d="M2712.27 272.047C2705.63 274.842 2696.2 278.684 2691.66 280.78C2691.66 280.78 2684.63 283.287 2683.72 284.189C2682.82 285.092 2693.41 290.909 2693.41 290.909C2698.99 294.752 2707.73 300.341 2713.32 303.135C2722.05 308.025 2722.75 307.676 2722.75 301.039C2722.75 296.498 2726.13 293.04 2726.13 293.04C2721.1 290.685 2705.28 288.06 2705.28 287.798C2705.28 287.536 2709.89 287.798 2716.2 288.7C2722.85 289.651 2727.93 291.407 2729.73 290.505C2731.54 289.602 2730.14 283.255 2729.04 277.407C2727.93 271.559 2728.83 267.95 2727.29 266.458C2725.74 264.967 2718.9 269.253 2712.27 272.047Z" fill="#7FCC38"/>
<path d="M2776.89 358.161C2787.72 363.401 2804.83 383.311 2804.83 390.298C2804.83 392.043 2770.95 392.743 2729.38 392.743L2653.93 392.043L2670 377.372C2678.74 369.339 2692.71 360.607 2701.09 357.813C2722.05 350.128 2761.52 350.477 2776.89 358.161Z" fill="#FFCB19"/>
<path d="M2765.01 315.547C2778.28 330.218 2789.81 343.841 2790.51 345.936C2791.21 348.032 2787.02 348.731 2778.28 347.333C2770.6 345.936 2754.53 344.889 2742.31 344.889H2719.95L2722.05 327.424C2724.14 311.005 2733.58 289 2738.81 289C2739.86 289 2751.74 300.876 2765.01 315.547Z" fill="#7FCC38"/>
<path d="M2817.41 365.846C2828.93 371.436 2841.86 379.818 2846.05 384.359L2853.73 392.392L2834.52 392.743C2815.31 393.092 2814.96 392.743 2808.32 379.818C2804.48 372.484 2797.85 363.751 2793.66 360.955C2780.03 351.525 2794.7 354.319 2817.41 365.846Z" fill="#FB462E"/>
<path d="M2903.33 366.545C2909.27 371.784 2920.1 387.153 2920.1 390.646C2920.1 395.188 2859.67 392.392 2858.27 387.852C2856.53 382.962 2883.77 362.352 2892.16 362.352C2895.3 362.352 2900.19 364.449 2903.33 366.545Z" fill="#7FCC38"/>
<path d="M3073.44 357.464C3102.09 391.346 3101.04 392.392 3043.05 390.995L3000.09 389.949L3015.11 371.784C3023.49 361.655 3033.62 349.778 3037.82 344.889C3042.36 339.999 3045.85 335.108 3045.85 333.711C3045.85 326.725 3052.84 333.012 3073.44 357.464Z" fill="#FB462E"/>
<path d="M3038.51 337.203C2996.95 388.55 2991.71 393.791 2981.58 393.791C2971.45 393.791 2971.45 393.44 2992.06 371.784C3003.58 359.909 3018.95 343.49 3026.64 335.108C3042.01 318.341 3052.49 319.738 3038.51 337.203Z" fill="#FFCB19"/>
<path d="M3008.12 345.587C2994.5 359.558 2979.48 375.627 2974.94 381.216C2967.96 388.901 2962.72 391.695 2949.79 392.743L2933.03 394.14L2947.35 377.372C2973.19 346.984 2995.9 326.725 3007.78 323.931C3033.27 317.992 3033.62 319.738 3008.12 345.587Z" fill="#FB462E"/>
<path d="M2947.09 365.846C2937.71 377.291 2930.58 387.332 2930.58 390.298C2930.23 393.092 2927.09 389.249 2923.24 381.565C2916.96 368.642 2916.96 366.894 2921.85 351.525C2938.61 301.575 2974.24 273.98 3022.1 274.33C3049.69 274.33 3069.25 283.412 3083.92 302.972L3093 315.198L3082.53 306.814C3051.09 282.713 3007.43 282.713 2977.39 307.514C2963.76 319.04 2947.09 357.113 2947.09 365.846Z" fill="#7FCC38"/>
<path d="M2885.17 227.873C2885.17 271.186 2883.77 295.986 2881.68 295.986C2879.58 295.986 2866.31 285.507 2852.34 272.234L2826.14 248.831V204.12L2825.79 159.759H2855.48H2885.17V227.873Z" fill="#FFCB19"/>
<path d="M2902.64 233.112C2902.99 297.383 2902.29 306.117 2897.4 304.369C2889.71 301.227 2889.36 159.759 2897.05 159.759C2901.24 159.759 2902.29 171.985 2902.64 233.112Z" fill="#FB462E"/>
<path d="M2723.79 188.402C2733.23 204.47 2746.15 227.524 2752.44 240.098C2766.41 267.693 2788.41 324.28 2786.32 326.376C2783.87 328.47 2757.68 295.986 2758.37 292.144C2759.07 290.398 2758.03 289 2755.93 289C2754.18 289 2753.83 286.555 2754.88 283.062C2756.63 278.871 2755.93 278.172 2752.44 280.268C2749.29 282.364 2748.6 281.665 2750.69 278.521C2752.09 276.076 2751.39 273.282 2749.29 271.535C2746.85 270.138 2744.75 266.994 2744.4 264.2C2743.35 256.865 2714.36 202.374 2710.52 199.929C2705.98 197.134 2705.98 200.278 2710.52 207.963C2716.11 217.743 2741.96 279.569 2740.91 280.617C2740.21 281.316 2732.18 271.186 2722.75 258.262L2705.63 234.859L2704.23 197.134C2703.54 176.526 2703.54 159.759 2704.58 159.759C2705.28 159.759 2714.01 172.683 2723.79 188.402Z" fill="#7FCC38"/>
<path d="M2839.41 269.44L2858.27 288.302L2838.36 312.404C2819.5 334.409 2803.78 348.381 2796.45 348.381C2791.91 348.381 2795.75 267.693 2800.64 258.262C2807.63 245.687 2818.8 248.831 2839.41 269.44Z" fill="#7FCC38"/>
<path d="M2890.06 139.151C2894.95 141.596 2899.49 145.438 2900.54 147.883C2901.94 151.725 2895.3 152.773 2865.96 152.773C2835.22 152.773 2829.28 151.725 2829.28 147.534C2829.28 144.39 2832.78 140.548 2837.32 138.801C2848.5 134.26 2879.93 134.61 2890.06 139.151Z" fill="#7FCC38"/>
<path d="M2867.71 123.083C2867.71 125.877 2866.31 128.322 2864.21 128.322C2862.47 128.322 2860.72 125.877 2860.72 123.083C2860.72 120.289 2862.47 117.843 2864.21 117.843C2866.31 117.843 2867.71 120.289 2867.71 123.083Z" fill="#FFCB19"/>
<path d="M2838.72 359.558C2854.78 367.593 2859.67 371.784 2856.88 374.929C2854.43 378.072 2849.19 376.326 2835.92 367.243C2826.14 360.607 2816.01 355.367 2813.22 355.367C2810.42 355.367 2808.32 353.622 2808.32 351.874C2808.32 345.935 2816.01 348.032 2838.72 359.558Z" fill="#FFCB19"/>
<path d="M2901.59 335.806C2901.59 356.416 2900.89 358.861 2895.65 357.113C2892.16 356.065 2884.12 357.813 2877.49 360.955C2865.61 366.545 2864.91 366.545 2844.65 355.019C2833.47 348.731 2823.34 343.142 2822.65 342.793C2822.3 342.093 2830.68 330.916 2841.86 317.643L2862.47 293.541L2882.03 303.321L2901.24 312.753L2901.59 335.806Z" fill="#FFCB19"/>
<path d="M3138.06 374.929C3145.4 377.723 3145.4 388.901 3138.06 391.695C3130.73 394.489 3126.19 391.346 3126.19 383.661C3126.19 373.881 3129.33 371.784 3138.06 374.929Z" fill="#FFCB19"/>
<path fill-rule="evenodd" clip-rule="evenodd" d="M2949.26 363.222C2949.22 363.299 2949.17 363.373 2949.13 363.448C2947.85 365.699 2947.09 366.757 2947.09 365.846L2947.1 365.84C2947.81 364.975 2948.53 364.102 2949.26 363.222Z" fill="#131313"/>
<path fill-rule="evenodd" clip-rule="evenodd" d="M2947.1 365.84C2947.81 364.975 2948.53 364.102 2949.26 363.222L2949.13 363.448C2947.85 365.699 2947.09 366.757 2947.09 365.846L2947.1 365.84Z" fill="#131313"/>
<path d="M2971.1 176.526C2956.43 219.49 2950.84 230.667 2938.96 238.352C2934.07 241.496 2930.58 242.893 2931.28 241.496C2947.7 209.709 2963.76 167.444 2956.78 174.43C2955.38 175.827 2948.39 189.45 2941.06 205.168C2924.64 240.448 2922.9 242.194 2925.69 220.538C2927.79 206.216 2931.98 198.881 2952.94 173.033C2966.56 156.266 2978.78 142.644 2980.18 142.644C2981.58 142.294 2977.39 157.664 2971.1 176.526Z" fill="#7FCC38"/>
<path d="M2748.94 147.534C2745.1 152.075 2745.8 154.17 2751.74 160.807C2755.58 164.999 2765.36 182.114 2773.05 198.881C2780.73 215.996 2788.07 229.619 2789.11 229.619C2792.61 229.619 2786.67 211.106 2775.84 187.703C2770.25 175.128 2765.71 161.156 2766.06 156.615C2766.76 143.691 2756.63 138.452 2748.94 147.534Z" fill="#FB462E"/>
<path d="M3110.12 206.915C3112.57 213.202 3113.26 212.853 3073.79 220.887C3024.54 230.667 2976.34 250.926 2942.81 276.425L2928.83 286.904L2941.06 273.631C2969 243.591 3015.46 220.188 3070.3 208.312C3107.68 200.627 3107.68 200.627 3110.12 206.915Z" fill="#FB462E"/>
<path d="M3102.79 266.645C3096.5 269.44 3091.26 273.282 3091.26 275.029C3091.26 279.569 3090.56 279.569 3109.77 272.933C3118.85 269.789 3126.19 265.947 3126.19 264.2C3126.19 259.659 3116.06 260.707 3102.79 266.645Z" fill="#FB462E"/>
<path d="M2674.7 240.885C2674.7 245.868 2670.66 249.907 2665.68 249.907C2660.7 249.907 2656.66 245.868 2656.66 240.885C2656.66 235.903 2660.7 231.864 2665.68 231.864C2670.66 231.864 2674.7 235.903 2674.7 240.885Z" fill="#7FCC38"/>
<path d="M3142.61 314.848C3141.56 317.643 3142.95 321.834 3145.75 324.28C3149.94 327.773 3152.04 327.424 3156.58 323.231C3159.37 320.089 3160.77 315.896 3159.72 313.801C3156.23 308.212 3144.7 308.911 3142.61 314.848Z" fill="#FB462E"/>
<path d="M2927.09 350.826C2927.09 352.574 2930.23 357.113 2934.07 360.607C2937.92 364.1 2941.06 365.497 2941.06 363.401C2941.06 361.655 2937.92 357.113 2934.07 353.622C2930.23 350.128 2927.09 348.731 2927.09 350.826Z" fill="#131313"/>
<path d="M2637.17 372.484C2637.17 374.229 2639.61 376.675 2642.76 377.723C2650.09 380.517 2650.09 380.517 2652.54 374.578C2653.93 370.736 2652.19 369.339 2645.9 369.339C2641.01 369.339 2637.17 370.736 2637.17 372.484Z" fill="#FFCB19"/>
<path d="M2619.7 382.962C2617.26 388.201 2617.61 390.995 2621.8 395.188C2629.48 402.872 2636.93 398.882 2640.42 391.548C2643.91 384.213 2638.69 382.962 2636.82 379.469C2634.1 374.407 2623.89 375.627 2619.7 382.962ZM2635.42 390.298C2634.37 392.043 2630.88 393.791 2628.09 393.791C2625.29 393.791 2623.2 392.043 2623.2 390.298C2623.2 388.201 2626.34 386.804 2630.53 386.804C2634.37 386.804 2636.47 388.201 2635.42 390.298Z" fill="#FFCB19"/>
</g>
<path d="M802.532 226.08C792.452 222.533 784.799 220.293 779.572 219.36C774.345 218.24 768.559 217.68 762.212 217.68C750.825 217.68 741.305 223 733.652 233.64C725.999 244.093 722.172 258 722.172 275.36C722.172 293.28 726.185 307.187 734.212 317.08C742.239 326.973 752.225 331.92 764.172 331.92C771.079 331.92 777.612 330.987 783.772 329.12C789.932 327.067 795.439 324.547 800.292 321.56L819.612 359.64C812.145 364.12 803.185 367.573 792.732 370C782.465 372.427 772.479 373.64 762.772 373.64C731.785 373.64 708.452 364.493 692.772 346.2C677.279 327.907 669.532 304.387 669.532 275.64C669.532 246.333 677.839 222.44 694.452 203.96C711.065 185.293 733.465 175.96 761.652 175.96C771.172 175.96 780.972 177.36 791.052 180.16C801.319 182.773 810.185 186.6 817.652 191.64L802.532 226.08ZM926.977 240.64L908.777 292.44H946.017L926.977 240.64ZM953.297 179.6L1024.42 364.96L974.297 370L960.577 332.48H894.777L881.617 370H830.937L902.337 179.6H953.297ZM1095.8 294.96C1083.11 288.613 1070.41 280.4 1057.72 270.32C1045.03 260.053 1038.68 246.8 1038.68 230.56C1038.87 214.88 1045.31 201.907 1058 191.64C1070.69 181.187 1087.87 175.96 1109.52 175.96C1119.04 175.96 1128.84 177.36 1138.92 180.16C1149.19 182.773 1158.05 186.6 1165.52 191.64L1150.4 226.08C1140.32 222.533 1132.67 220.293 1127.44 219.36C1122.21 218.24 1116.43 217.68 1110.08 217.68C1104.29 217.68 1099.72 219.08 1096.36 221.88C1093 224.493 1091.32 227.573 1091.32 231.12C1091.32 235.227 1094.12 238.867 1099.72 242.04C1105.51 245.027 1112.32 248.573 1120.16 252.68C1133.6 259.587 1146.57 268.267 1159.08 278.72C1171.59 289.173 1177.84 302.147 1177.84 317.64C1177.84 333.693 1171.03 347.04 1157.4 357.68C1143.96 368.32 1125.48 373.64 1101.96 373.64C1092.25 373.64 1081.24 372.24 1068.92 369.44C1056.79 366.453 1046.99 362.72 1039.52 358.24L1056.32 319.88C1061.17 322.867 1067.99 325.667 1076.76 328.28C1085.72 330.707 1093.65 331.92 1100.56 331.92C1108.59 331.92 1114.65 330.333 1118.76 327.16C1123.05 323.987 1125.2 320.627 1125.2 317.08C1125.2 313.72 1122.12 310.08 1115.96 306.16C1109.8 302.24 1103.08 298.507 1095.8 294.96ZM1284.09 240.64L1265.89 292.44H1303.13L1284.09 240.64ZM1310.41 179.6L1381.53 364.96L1331.41 370L1317.69 332.48H1251.89L1238.73 370H1188.05L1259.45 179.6H1310.41ZM1403.91 370V179.6H1467.47C1488.38 179.6 1506.67 183.893 1522.35 192.48C1538.03 201.067 1545.87 215.067 1545.87 234.48V235.88C1545.68 242.6 1544.19 248.76 1541.39 254.36C1538.78 259.773 1535.32 264.627 1531.03 268.92C1538.5 274.147 1544.56 280.587 1549.23 288.24C1554.08 295.707 1556.51 304.013 1556.51 313.16C1556.51 335 1548.2 349.933 1531.59 357.96C1514.98 365.987 1496.4 370 1475.87 370H1403.91ZM1465.79 219.64H1454.87V251.84H1466.35C1474.19 251.84 1480.63 250.627 1485.67 248.2C1490.71 245.773 1493.23 242.04 1493.23 237C1493.23 231.213 1490.8 226.92 1485.95 224.12C1481.1 221.133 1474.38 219.64 1465.79 219.64ZM1476.43 291.88H1454.87V329.96H1476.99C1484.83 329.96 1491.27 328.467 1496.31 325.48C1501.35 322.493 1503.87 318.013 1503.87 312.04C1503.87 305.693 1501.44 300.747 1496.59 297.2C1491.74 293.653 1485.02 291.88 1476.43 291.88ZM1721.02 370H1584.38V179.6H1635.34V329.96H1716.26L1721.02 370ZM1822.76 240.64L1804.56 292.44H1841.8L1822.76 240.64ZM1849.08 179.6L1920.2 364.96L1870.08 370L1856.36 332.48H1790.56L1777.4 370H1726.72L1798.12 179.6H1849.08ZM1942.58 370V179.6H1989.9L2063.26 282.92V179.6H2114.22V370H2066.62L1993.54 269.76V370H1942.58ZM2278 226.08C2267.92 222.533 2260.27 220.293 2255.04 219.36C2249.81 218.24 2244.03 217.68 2237.68 217.68C2226.29 217.68 2216.77 223 2209.12 233.64C2201.47 244.093 2197.64 258 2197.64 275.36C2197.64 293.28 2201.65 307.187 2209.68 317.08C2217.71 326.973 2227.69 331.92 2239.64 331.92C2246.55 331.92 2253.08 330.987 2259.24 329.12C2265.4 327.067 2270.91 324.547 2275.76 321.56L2295.08 359.64C2287.61 364.12 2278.65 367.573 2268.2 370C2257.93 372.427 2247.95 373.64 2238.24 373.64C2207.25 373.64 2183.92 364.493 2168.24 346.2C2152.75 327.907 2145 304.387 2145 275.64C2145 246.333 2153.31 222.44 2169.92 203.96C2186.53 185.293 2208.93 175.96 2237.12 175.96C2246.64 175.96 2256.44 177.36 2266.52 180.16C2276.79 182.773 2285.65 186.6 2293.12 191.64L2278 226.08ZM2402.45 240.64L2384.25 292.44H2421.49L2402.45 240.64ZM2428.77 179.6L2499.89 364.96L2449.77 370L2436.05 332.48H2370.25L2357.09 370H2306.41L2377.81 179.6H2428.77Z" fill="#131313"/>
<path d="M802.532 226.08C792.452 222.533 784.799 220.293 779.572 219.36C774.345 218.24 768.559 217.68 762.212 217.68C750.825 217.68 741.305 223 733.652 233.64C725.999 244.093 722.172 258 722.172 275.36C722.172 293.28 726.185 307.187 734.212 317.08C742.239 326.973 752.225 331.92 764.172 331.92C771.079 331.92 777.612 330.987 783.772 329.12C789.932 327.067 795.439 324.547 800.292 321.56L819.612 359.64C812.145 364.12 803.185 367.573 792.732 370C782.465 372.427 772.479 373.64 762.772 373.64C731.785 373.64 708.452 364.493 692.772 346.2C677.279 327.907 669.532 304.387 669.532 275.64C669.532 246.333 677.839 222.44 694.452 203.96C711.065 185.293 733.465 175.96 761.652 175.96C771.172 175.96 780.972 177.36 791.052 180.16C801.319 182.773 810.185 186.6 817.652 191.64L802.532 226.08ZM926.977 240.64L908.777 292.44H946.017L926.977 240.64ZM953.297 179.6L1024.42 364.96L974.297 370L960.577 332.48H894.777L881.617 370H830.937L902.337 179.6H953.297ZM1095.8 294.96C1083.11 288.613 1070.41 280.4 1057.72 270.32C1045.03 260.053 1038.68 246.8 1038.68 230.56C1038.87 214.88 1045.31 201.907 1058 191.64C1070.69 181.187 1087.87 175.96 1109.52 175.96C1119.04 175.96 1128.84 177.36 1138.92 180.16C1149.19 182.773 1158.05 186.6 1165.52 191.64L1150.4 226.08C1140.32 222.533 1132.67 220.293 1127.44 219.36C1122.21 218.24 1116.43 217.68 1110.08 217.68C1104.29 217.68 1099.72 219.08 1096.36 221.88C1093 224.493 1091.32 227.573 1091.32 231.12C1091.32 235.227 1094.12 238.867 1099.72 242.04C1105.51 245.027 1112.32 248.573 1120.16 252.68C1133.6 259.587 1146.57 268.267 1159.08 278.72C1171.59 289.173 1177.84 302.147 1177.84 317.64C1177.84 333.693 1171.03 347.04 1157.4 357.68C1143.96 368.32 1125.48 373.64 1101.96 373.64C1092.25 373.64 1081.24 372.24 1068.92 369.44C1056.79 366.453 1046.99 362.72 1039.52 358.24L1056.32 319.88C1061.17 322.867 1067.99 325.667 1076.76 328.28C1085.72 330.707 1093.65 331.92 1100.56 331.92C1108.59 331.92 1114.65 330.333 1118.76 327.16C1123.05 323.987 1125.2 320.627 1125.2 317.08C1125.2 313.72 1122.12 310.08 1115.96 306.16C1109.8 302.24 1103.08 298.507 1095.8 294.96ZM1284.09 240.64L1265.89 292.44H1303.13L1284.09 240.64ZM1310.41 179.6L1381.53 364.96L1331.41 370L1317.69 332.48H1251.89L1238.73 370H1188.05L1259.45 179.6H1310.41ZM1403.91 370V179.6H1467.47C1488.38 179.6 1506.67 183.893 1522.35 192.48C1538.03 201.067 1545.87 215.067 1545.87 234.48V235.88C1545.68 242.6 1544.19 248.76 1541.39 254.36C1538.78 259.773 1535.32 264.627 1531.03 268.92C1538.5 274.147 1544.56 280.587 1549.23 288.24C1554.08 295.707 1556.51 304.013 1556.51 313.16C1556.51 335 1548.2 349.933 1531.59 357.96C1514.98 365.987 1496.4 370 1475.87 370H1403.91ZM1465.79 219.64H1454.87V251.84H1466.35C1474.19 251.84 1480.63 250.627 1485.67 248.2C1490.71 245.773 1493.23 242.04 1493.23 237C1493.23 231.213 1490.8 226.92 1485.95 224.12C1481.1 221.133 1474.38 219.64 1465.79 219.64ZM1476.43 291.88H1454.87V329.96H1476.99C1484.83 329.96 1491.27 328.467 1496.31 325.48C1501.35 322.493 1503.87 318.013 1503.87 312.04C1503.87 305.693 1501.44 300.747 1496.59 297.2C1491.74 293.653 1485.02 291.88 1476.43 291.88ZM1721.02 370H1584.38V179.6H1635.34V329.96H1716.26L1721.02 370ZM1822.76 240.64L1804.56 292.44H1841.8L1822.76 240.64ZM1849.08 179.6L1920.2 364.96L1870.08 370L1856.36 332.48H1790.56L1777.4 370H1726.72L1798.12 179.6H1849.08ZM1942.58 370V179.6H1989.9L2063.26 282.92V179.6H2114.22V370H2066.62L1993.54 269.76V370H1942.58ZM2278 226.08C2267.92 222.533 2260.27 220.293 2255.04 219.36C2249.81 218.24 2244.03 217.68 2237.68 217.68C2226.29 217.68 2216.77 223 2209.12 233.64C2201.47 244.093 2197.64 258 2197.64 275.36C2197.64 293.28 2201.65 307.187 2209.68 317.08C2217.71 326.973 2227.69 331.92 2239.64 331.92C2246.55 331.92 2253.08 330.987 2259.24 329.12C2265.4 327.067 2270.91 324.547 2275.76 321.56L2295.08 359.64C2287.61 364.12 2278.65 367.573 2268.2 370C2257.93 372.427 2247.95 373.64 2238.24 373.64C2207.25 373.64 2183.92 364.493 2168.24 346.2C2152.75 327.907 2145 304.387 2145 275.64C2145 246.333 2153.31 222.44 2169.92 203.96C2186.53 185.293 2208.93 175.96 2237.12 175.96C2246.64 175.96 2256.44 177.36 2266.52 180.16C2276.79 182.773 2285.65 186.6 2293.12 191.64L2278 226.08ZM2402.45 240.64L2384.25 292.44H2421.49L2402.45 240.64ZM2428.77 179.6L2499.89 364.96L2449.77 370L2436.05 332.48H2370.25L2357.09 370H2306.41L2377.81 179.6H2428.77Z" fill="white"/>
<g clip-path="url(#clip1_235_541)">
<path fill-rule="evenodd" clip-rule="evenodd" d="M2.7354 338.246C7.97488 319.384 22.2962 306.11 55.8289 290.042L84.8209 276.07L91.1082 290.042C99.4914 308.206 95.6491 319.384 70.8488 348.375C50.9388 372.128 36.2682 383.654 26.4879 383.654C13.2144 383.654 43.9236 351.523 51.141 343.405C61.7355 330.834 67.6676 323.427 78.206 308.22C47.0348 327.075 31.8416 340.118 7.06454 365.893C0.777159 367.989 -0.757597 351.518 2.7354 338.246Z" fill="#7FCC38"/>
<path d="M7.06454 365.893C14.0505 363.448 75.4995 310.926 78.206 308.22C47.0348 327.075 31.8416 340.118 7.06454 365.893Z" fill="#6DAD31"/>
<path d="M151.268 272.047C144.631 274.842 135.2 278.684 130.659 280.78C130.659 280.78 123.626 283.287 122.724 284.189C121.822 285.092 132.406 290.909 132.406 290.909C137.994 294.752 146.727 300.341 152.316 303.135C161.048 308.025 161.747 307.676 161.747 301.039C161.747 296.498 165.126 293.04 165.126 293.04C160.096 290.685 144.282 288.06 144.282 287.798C144.282 287.536 148.887 287.798 155.202 288.7C161.854 289.651 166.93 291.407 168.734 290.505C170.539 289.602 169.141 283.255 168.036 277.407C166.93 271.559 167.832 267.95 166.288 266.458C164.743 264.967 157.904 269.253 151.268 272.047Z" fill="#7FCC38"/>
<path d="M215.888 358.161C226.717 363.401 243.833 383.311 243.833 390.298C243.833 392.043 209.951 392.743 168.384 392.743L92.935 392.043L109.003 377.372C117.735 369.339 131.707 360.607 140.09 357.813C161.048 350.128 200.519 350.477 215.888 358.161Z" fill="#FFCB19"/>
<path d="M204.013 315.547C217.285 330.218 228.813 343.841 229.511 345.936C230.21 348.032 226.017 348.731 217.285 347.333C209.601 345.936 193.533 344.889 181.308 344.889H158.952L161.048 327.424C163.144 311.005 172.575 289 177.815 289C178.863 289 190.739 300.876 204.013 315.547Z" fill="#7FCC38"/>
<path d="M256.408 365.846C267.934 371.436 280.858 379.818 285.051 384.359L292.735 392.392L273.522 392.743C254.311 393.092 253.963 392.743 247.325 379.818C243.483 372.484 236.846 363.751 232.655 360.955C219.033 351.525 233.702 354.319 256.408 365.846Z" fill="#FB462E"/>
<path d="M342.334 366.545C348.273 371.784 359.102 387.153 359.102 390.646C359.102 395.188 298.672 392.392 297.275 387.852C295.529 382.962 322.775 362.352 331.157 362.352C334.301 362.352 339.192 364.449 342.334 366.545Z" fill="#7FCC38"/>
<path d="M512.443 357.464C541.086 391.346 540.038 392.392 482.055 390.995L439.092 389.949L454.111 371.784C462.493 361.655 472.625 349.778 476.816 344.889C481.357 339.999 484.849 335.108 484.849 333.711C484.849 326.725 491.836 333.012 512.443 357.464Z" fill="#FB462E"/>
<path d="M477.513 337.203C435.947 388.55 430.708 393.791 420.578 393.791C410.449 393.791 410.449 393.44 431.057 371.784C442.585 359.909 457.954 343.49 465.638 335.108C481.007 318.341 491.487 319.738 477.513 337.203Z" fill="#FFCB19"/>
<path d="M447.125 345.587C433.502 359.558 418.482 375.627 413.942 381.216C406.955 388.901 401.716 391.695 388.791 392.743L372.025 394.14L386.348 377.372C412.195 346.984 434.899 326.725 446.776 323.931C472.274 317.992 472.625 319.738 447.125 345.587Z" fill="#FB462E"/>
<path d="M386.091 365.846C376.715 377.291 369.58 387.332 369.58 390.298C369.231 393.092 366.087 389.249 362.245 381.565C355.957 368.642 355.957 366.894 360.848 351.525C377.615 301.575 413.243 273.98 461.096 274.33C488.691 274.33 508.252 283.412 522.924 302.972L532.005 315.198L521.527 306.814C490.088 282.713 446.427 282.713 416.387 307.514C402.764 319.04 386.091 357.113 386.091 365.846Z" fill="#7FCC38"/>
<path d="M324.172 227.873C324.172 271.186 322.775 295.986 320.678 295.986C318.582 295.986 305.31 285.507 291.338 272.234L265.14 248.831V204.12L264.79 159.759H294.481H324.172V227.873Z" fill="#FFCB19"/>
<path d="M341.637 233.112C341.986 297.383 341.288 306.117 336.398 304.369C328.711 301.227 328.363 159.759 336.047 159.759C340.24 159.759 341.288 171.985 341.637 233.112Z" fill="#FB462E"/>
<path d="M162.795 188.402C172.226 204.47 185.151 227.524 191.438 240.098C205.41 267.693 227.414 324.28 225.32 326.376C222.875 328.47 196.677 295.986 197.375 292.144C198.074 290.398 197.026 289 194.931 289C193.184 289 192.835 286.555 193.883 283.062C195.629 278.871 194.931 278.172 191.438 280.268C188.293 282.364 187.596 281.665 189.69 278.521C191.087 276.076 190.39 273.282 188.293 271.535C185.848 270.138 183.754 266.994 183.403 264.2C182.355 256.865 153.364 202.374 149.521 199.929C144.981 197.134 144.981 200.278 149.521 207.963C155.11 217.743 180.958 279.569 179.911 280.617C179.212 281.316 171.178 271.186 161.747 258.262L144.631 234.859L143.234 197.134C142.535 176.526 142.535 159.759 143.583 159.759C144.282 159.759 153.014 172.683 162.795 188.402Z" fill="#7FCC38"/>
<path d="M278.413 269.44L297.275 288.302L277.365 312.404C258.502 334.409 242.785 348.381 235.449 348.381C230.908 348.381 234.75 267.693 239.64 258.262C246.627 245.687 257.805 248.831 278.413 269.44Z" fill="#7FCC38"/>
<path d="M329.062 139.151C333.952 141.596 338.492 145.438 339.54 147.883C340.937 151.725 334.301 152.773 304.959 152.773C274.222 152.773 268.283 151.725 268.283 147.534C268.283 144.39 271.777 140.548 276.318 138.801C287.496 134.26 318.933 134.61 329.062 139.151Z" fill="#7FCC38"/>
<path d="M306.707 123.083C306.707 125.877 305.31 128.322 303.213 128.322C301.467 128.322 299.72 125.877 299.72 123.083C299.72 120.289 301.467 117.843 303.213 117.843C305.31 117.843 306.707 120.289 306.707 123.083Z" fill="#FFCB19"/>
<path d="M277.715 359.558C293.783 367.593 298.672 371.784 295.878 374.929C293.433 378.072 288.193 376.326 274.919 367.243C265.14 360.607 255.011 355.367 252.215 355.367C249.421 355.367 247.325 353.622 247.325 351.874C247.325 345.935 255.011 348.032 277.715 359.558Z" fill="#FFCB19"/>
<path d="M340.589 335.806C340.589 356.416 339.889 358.861 334.65 357.113C331.157 356.065 323.124 357.813 316.487 360.955C304.61 366.545 303.913 366.545 283.652 355.019C272.474 348.731 262.345 343.142 261.647 342.793C261.298 342.093 269.68 330.916 280.858 317.643L301.468 293.541L321.027 303.321L340.24 312.753L340.589 335.806Z" fill="#FFCB19"/>
<path d="M577.064 374.929C584.4 377.723 584.4 388.901 577.064 391.695C569.729 394.489 565.189 391.346 565.189 383.661C565.189 373.881 568.332 371.784 577.064 374.929Z" fill="#FFCB19"/>
<path fill-rule="evenodd" clip-rule="evenodd" d="M388.261 363.222C388.218 363.299 388.175 363.373 388.133 363.448C386.854 365.699 386.091 366.757 386.091 365.846L386.098 365.84C386.807 364.975 387.528 364.102 388.261 363.222Z" fill="#131313"/>
<path fill-rule="evenodd" clip-rule="evenodd" d="M386.098 365.84C386.807 364.975 387.528 364.102 388.261 363.222L388.133 363.448C386.854 365.699 386.091 366.757 386.091 365.846L386.098 365.84Z" fill="#131313"/>
<path d="M410.1 176.526C395.429 219.49 389.839 230.667 377.964 238.352C373.074 241.496 369.58 242.893 370.28 241.496C386.696 209.709 402.764 167.444 395.778 174.43C394.381 175.827 387.394 189.45 380.06 205.168C363.642 240.448 361.896 242.194 364.69 220.538C366.786 206.216 370.977 198.881 391.936 173.033C405.558 156.266 417.784 142.644 419.181 142.644C420.578 142.294 416.387 157.664 410.1 176.526Z" fill="#7FCC38"/>
<path d="M187.945 147.534C184.102 152.075 184.8 154.17 190.739 160.807C194.581 164.999 204.361 182.114 212.046 198.881C219.73 215.996 227.066 229.619 228.114 229.619C231.607 229.619 225.669 211.106 214.84 187.703C209.252 175.128 204.71 161.156 205.061 156.615C205.758 143.691 195.629 138.452 187.945 147.534Z" fill="#FB462E"/>
<path d="M549.121 206.915C551.566 213.202 552.264 212.853 512.794 220.887C463.542 230.667 415.339 250.926 381.806 276.425L367.834 286.904L380.06 273.631C408.004 243.591 454.46 220.188 509.301 208.312C546.676 200.627 546.676 200.627 549.121 206.915Z" fill="#FB462E"/>
<path d="M541.786 266.645C535.498 269.44 530.259 273.282 530.259 275.029C530.259 279.569 529.56 279.569 548.77 272.933C557.854 269.789 565.189 265.947 565.189 264.2C565.189 259.659 555.058 260.707 541.786 266.645Z" fill="#FB462E"/>
<path d="M113.702 240.885C113.702 245.868 109.663 249.907 104.681 249.907C99.6978 249.907 95.6588 245.868 95.6588 240.885C95.6588 235.903 99.6978 231.864 104.681 231.864C109.663 231.864 113.702 235.903 113.702 240.885Z" fill="#7FCC38"/>
<path d="M581.606 314.848C580.558 317.643 581.955 321.834 584.749 324.28C588.94 327.773 591.036 327.424 595.578 323.231C598.372 320.089 599.769 315.896 598.72 313.801C595.227 308.212 583.701 308.911 581.606 314.848Z" fill="#FB462E"/>
<path d="M366.087 350.826C366.087 352.574 369.231 357.113 373.074 360.607C376.916 364.1 380.06 365.497 380.06 363.401C380.06 361.655 376.916 357.113 373.074 353.622C369.231 350.128 366.087 348.731 366.087 350.826Z" fill="#131313"/>
<path d="M76.1684 372.484C76.1684 374.229 78.6134 376.675 81.7573 377.723C89.0924 380.517 89.0924 380.517 91.5376 374.578C92.9348 370.736 91.1883 369.339 84.9009 369.339C80.0108 369.339 76.1684 370.736 76.1684 372.484Z" fill="#FFCB19"/>
<path d="M58.7035 382.962C56.2583 388.201 56.6077 390.995 60.7994 395.188C68.4839 402.872 75.9268 398.882 79.4198 391.548C82.9128 384.213 77.6921 382.962 75.8192 379.469C73.1046 374.407 62.895 375.627 58.7035 382.962ZM74.4221 390.298C73.3741 392.043 69.881 393.791 67.0867 393.791C64.2924 393.791 62.1965 392.043 62.1965 390.298C62.1965 388.201 65.3402 386.804 69.5319 386.804C73.3741 386.804 75.4699 388.201 74.4221 390.298Z" fill="#FFCB19"/>
</g>
<defs>
<clipPath id="clip0_235_541">
<rect width="598.193" height="281.928" fill="white" transform="translate(2561.9 117.843)"/>
</clipPath>
<clipPath id="clip1_235_541">
<rect width="598.193" height="281.928" fill="white" transform="translate(0.903648 117.843)"/>
</clipPath>
</defs>
</svg>
