<svg width="701" height="532" viewBox="0 0 701 532" fill="none" xmlns="http://www.w3.org/2000/svg">
<path d="M336.831 517.811L350.491 504.151L364.151 517.811L350.491 531.471L336.831 517.811Z" fill="#1E1E1E"/>
<path d="M336.831 517.811L350.491 504.151L364.151 517.811L350.491 531.471L336.831 517.811Z" fill="white"/>
<path fill-rule="evenodd" clip-rule="evenodd" d="M125.943 518.639C125.943 516.417 127.745 514.615 129.968 514.615H300.61C302.833 514.615 304.634 516.417 304.634 518.639C304.634 520.862 302.833 522.664 300.61 522.664H129.968C127.745 522.664 125.943 520.862 125.943 518.639Z" fill="#1E1E1E"/>
<path fill-rule="evenodd" clip-rule="evenodd" d="M125.943 518.639C125.943 516.417 127.745 514.615 129.968 514.615H300.61C302.833 514.615 304.634 516.417 304.634 518.639C304.634 520.862 302.833 522.664 300.61 522.664H129.968C127.745 522.664 125.943 520.862 125.943 518.639Z" fill="white"/>
<path fill-rule="evenodd" clip-rule="evenodd" d="M396.395 518.639C396.395 516.417 398.197 514.615 400.419 514.615H571.061C573.284 514.615 575.086 516.417 575.086 518.639C575.086 520.862 573.284 522.664 571.061 522.664H400.419C398.197 522.664 396.395 520.862 396.395 518.639Z" fill="#1E1E1E"/>
<path fill-rule="evenodd" clip-rule="evenodd" d="M396.395 518.639C396.395 516.417 398.197 514.615 400.419 514.615H571.061C573.284 514.615 575.086 516.417 575.086 518.639C575.086 520.862 573.284 522.664 571.061 522.664H400.419C398.197 522.664 396.395 520.862 396.395 518.639Z" fill="white"/>
<path d="M127.326 451.503C125.278 450.863 123.656 450.415 122.462 450.159C121.267 449.86 119.816 449.711 118.11 449.711C114.654 449.711 111.987 451.119 110.11 453.935C108.232 456.751 107.294 460.612 107.294 465.519C107.294 469.743 108.083 473.391 109.662 476.463C111.24 479.535 113.886 481.071 117.598 481.071C119.432 481.071 121.139 480.879 122.718 480.495C124.339 480.111 125.811 479.641 127.134 479.087L130.27 485.231C128.606 486.084 126.6 486.767 124.254 487.279C121.907 487.791 119.838 488.047 118.046 488.047C111.262 488.047 106.334 485.871 103.262 481.519C100.19 477.167 98.6537 471.855 98.6537 465.583C98.6537 458.884 100.339 453.401 103.71 449.135C107.123 444.868 112.008 442.735 118.366 442.735C119.646 442.735 121.416 442.948 123.678 443.375C125.939 443.801 128.008 444.527 129.886 445.551L127.326 451.503ZM143.119 477.871C143.119 478.767 143.482 479.577 144.207 480.303C144.933 480.985 145.893 481.327 147.087 481.327C148.239 481.327 149.391 481.071 150.543 480.559C151.738 480.047 152.869 479.279 153.935 478.255V473.519H147.663C146.213 473.519 145.082 473.967 144.271 474.863C143.503 475.759 143.119 476.761 143.119 477.871ZM147.215 487.919C143.418 487.919 140.602 487.001 138.767 485.167C136.933 483.289 136.015 480.857 136.015 477.871C136.015 474.671 137.103 472.217 139.279 470.511C141.455 468.804 144.293 467.951 147.791 467.951H153.871C153.829 466.372 153.359 465.156 152.463 464.303C151.61 463.407 150.415 462.959 148.879 462.959C147.429 462.959 145.85 463.172 144.143 463.599C142.437 463.983 141.007 464.452 139.855 465.007L137.615 458.095C138.81 457.284 140.623 456.623 143.055 456.111C145.53 455.556 147.429 455.279 148.751 455.279C152.463 455.279 155.642 456.367 158.287 458.543C160.933 460.676 162.255 463.407 162.255 466.735V487.151H157.967L155.919 484.527C154.767 485.423 153.402 486.212 151.823 486.895C150.287 487.577 148.751 487.919 147.215 487.919ZM186.935 456.111L188.599 462.767C187.191 462.767 185.549 463.172 183.671 463.983C181.837 464.793 180.023 465.988 178.231 467.567V487.151H169.911V456.111H174.263L177.015 460.655C178.295 459.545 179.853 458.521 181.687 457.583C183.522 456.601 185.271 456.111 186.935 456.111ZM197.009 442.351C198.331 442.351 199.441 442.799 200.337 443.695C201.275 444.591 201.745 445.7 201.745 447.023C201.745 448.345 201.275 449.455 200.337 450.351C199.441 451.247 198.331 451.695 197.009 451.695C195.729 451.695 194.641 451.247 193.745 450.351C192.849 449.455 192.401 448.345 192.401 447.023C192.401 445.7 192.849 444.591 193.745 443.695C194.641 442.799 195.729 442.351 197.009 442.351ZM201.169 456.111V487.151H192.849V456.111H201.169ZM217.928 441.967V457.071C219.165 456.388 220.466 455.855 221.832 455.471C223.24 455.087 224.498 454.895 225.608 454.895C230.173 454.895 233.672 456.473 236.104 459.631C238.536 462.788 239.752 466.713 239.752 471.407C239.752 476.1 238.493 480.025 235.976 483.183C233.501 486.34 230.045 487.919 225.608 487.919C224.157 487.919 222.536 487.62 220.744 487.023C218.952 486.425 217.352 485.593 215.944 484.527L213.896 487.151H209.672V442.671L217.928 441.967ZM223.432 480.815C226.29 480.815 228.296 479.791 229.448 477.743C230.6 475.652 231.176 473.54 231.176 471.407C231.176 468.975 230.664 466.799 229.64 464.879C228.616 462.959 226.546 461.999 223.432 461.999C222.536 461.999 221.597 462.169 220.616 462.511C219.677 462.809 218.781 463.236 217.928 463.791V479.023C218.781 479.535 219.677 479.961 220.616 480.303C221.597 480.644 222.536 480.815 223.432 480.815ZM255.115 441.967V457.071C256.353 456.388 257.654 455.855 259.019 455.471C260.427 455.087 261.686 454.895 262.795 454.895C267.361 454.895 270.859 456.473 273.291 459.631C275.723 462.788 276.939 466.713 276.939 471.407C276.939 476.1 275.681 480.025 273.163 483.183C270.689 486.34 267.233 487.919 262.795 487.919C261.345 487.919 259.723 487.62 257.931 487.023C256.139 486.425 254.539 485.593 253.131 484.527L251.083 487.151H246.859V442.671L255.115 441.967ZM260.619 480.815C263.478 480.815 265.483 479.791 266.635 477.743C267.787 475.652 268.363 473.54 268.363 471.407C268.363 468.975 267.851 466.799 266.827 464.879C265.803 462.959 263.734 461.999 260.619 461.999C259.723 461.999 258.785 462.169 257.803 462.511C256.865 462.809 255.969 463.236 255.115 463.791V479.023C255.969 479.535 256.865 479.961 257.803 480.303C258.785 480.644 259.723 480.815 260.619 480.815ZM299.663 487.919C294.287 487.919 290.041 486.447 286.927 483.503C283.855 480.559 282.319 476.612 282.319 471.663C282.319 466.713 283.705 462.745 286.479 459.759C289.295 456.772 293.113 455.279 297.935 455.279C302.799 455.279 306.361 456.9 308.623 460.143C310.927 463.343 312.079 467.14 312.079 471.535V474.095H291.151C291.535 476.143 292.473 477.785 293.967 479.023C295.46 480.217 297.423 480.815 299.855 480.815C301.263 480.815 302.521 480.644 303.631 480.303C304.783 479.919 306.105 479.385 307.599 478.703L310.031 484.719C308.58 485.828 306.809 486.639 304.719 487.151C302.671 487.663 300.985 487.919 299.663 487.919ZM304.207 468.527C303.78 466.436 303.012 464.9 301.903 463.919C300.793 462.895 299.407 462.383 297.743 462.383C296.036 462.383 294.607 462.916 293.455 463.983C292.303 465.007 291.556 466.521 291.215 468.527H304.207ZM324.682 477.871C324.682 478.767 325.044 479.577 325.77 480.303C326.495 480.985 327.455 481.327 328.65 481.327C329.802 481.327 330.954 481.071 332.106 480.559C333.3 480.047 334.431 479.279 335.498 478.255V473.519H329.226C327.775 473.519 326.644 473.967 325.834 474.863C325.066 475.759 324.682 476.761 324.682 477.871ZM328.778 487.919C324.98 487.919 322.164 487.001 320.33 485.167C318.495 483.289 317.578 480.857 317.578 477.871C317.578 474.671 318.666 472.217 320.842 470.511C323.018 468.804 325.855 467.951 329.354 467.951H335.434C335.391 466.372 334.922 465.156 334.026 464.303C333.172 463.407 331.978 462.959 330.442 462.959C328.991 462.959 327.412 463.172 325.706 463.599C323.999 463.983 322.57 464.452 321.418 465.007L319.178 458.095C320.372 457.284 322.186 456.623 324.618 456.111C327.092 455.556 328.991 455.279 330.314 455.279C334.026 455.279 337.204 456.367 339.85 458.543C342.495 460.676 343.818 463.407 343.818 466.735V487.151H339.53L337.482 484.527C336.33 485.423 334.964 486.212 333.386 486.895C331.85 487.577 330.314 487.919 328.778 487.919ZM358.322 459.439C359.73 458.031 361.479 456.921 363.57 456.111C365.703 455.3 367.602 454.895 369.266 454.895C373.49 454.895 376.476 456.132 378.226 458.607C380.018 461.081 380.914 464.111 380.914 467.695V487.151H372.594V468.079C372.594 466.116 372.124 464.623 371.186 463.599C370.247 462.532 368.882 461.999 367.09 461.999C365.895 461.999 364.636 462.319 363.314 462.959C362.034 463.556 360.86 464.26 359.794 465.071V487.151H351.474V456.111H355.826L358.322 459.439ZM432.076 451.503C430.028 450.863 428.406 450.415 427.212 450.159C426.017 449.86 424.566 449.711 422.86 449.711C419.404 449.711 416.737 451.119 414.86 453.935C412.982 456.751 412.044 460.612 412.044 465.519C412.044 469.743 412.833 473.391 414.412 476.463C415.99 479.535 418.636 481.071 422.348 481.071C424.182 481.071 425.889 480.879 427.468 480.495C429.089 480.111 430.561 479.641 431.884 479.087L435.02 485.231C433.356 486.084 431.35 486.767 429.004 487.279C426.657 487.791 424.588 488.047 422.796 488.047C416.012 488.047 411.084 485.871 408.012 481.519C404.94 477.167 403.404 471.855 403.404 465.583C403.404 458.884 405.089 453.401 408.46 449.135C411.873 444.868 416.758 442.735 423.116 442.735C424.396 442.735 426.166 442.948 428.428 443.375C430.689 443.801 432.758 444.527 434.636 445.551L432.076 451.503ZM463.741 484.079C462.333 485.401 460.605 486.447 458.557 487.215C456.509 488.025 454.653 488.431 452.989 488.431C448.765 488.431 445.757 487.193 443.965 484.719C442.216 482.201 441.341 479.172 441.341 475.631V456.111H449.725V475.247C449.725 477.209 450.195 478.724 451.133 479.791C452.072 480.815 453.437 481.327 455.229 481.327C456.339 481.327 457.512 481.049 458.749 480.495C459.987 479.94 461.117 479.3 462.141 478.575V456.111H470.461V487.151H466.109L463.741 484.079ZM482.634 442.351C483.956 442.351 485.066 442.799 485.962 443.695C486.9 444.591 487.37 445.7 487.37 447.023C487.37 448.345 486.9 449.455 485.962 450.351C485.066 451.247 483.956 451.695 482.634 451.695C481.354 451.695 480.266 451.247 479.37 450.351C478.474 449.455 478.026 448.345 478.026 447.023C478.026 445.7 478.474 444.591 479.37 443.695C480.266 442.799 481.354 442.351 482.634 442.351ZM486.794 456.111V487.151H478.474V456.111H486.794ZM513.089 464.495C511.595 463.812 510.209 463.3 508.929 462.959C507.649 462.575 506.283 462.383 504.833 462.383C503.766 462.383 502.934 462.596 502.337 463.023C501.782 463.407 501.505 463.961 501.505 464.687C501.505 465.199 501.846 465.689 502.529 466.159C503.254 466.628 504.406 467.14 505.985 467.695C508.587 468.633 510.998 469.956 513.217 471.663C515.435 473.327 516.545 475.503 516.545 478.191C516.545 481.263 515.435 483.652 513.217 485.359C511.041 487.065 507.841 487.919 503.617 487.919C502.294 487.919 500.523 487.663 498.305 487.151C496.129 486.639 494.315 485.828 492.865 484.719L495.361 478.703C496.854 479.385 498.283 479.919 499.649 480.303C501.057 480.644 502.337 480.815 503.489 480.815C505.025 480.815 506.198 480.601 507.009 480.175C507.819 479.748 508.225 479.193 508.225 478.511C508.225 477.657 507.819 476.889 507.009 476.207C506.198 475.524 504.918 474.905 503.169 474.351C500.694 473.54 498.347 472.388 496.129 470.895C493.953 469.359 492.865 467.311 492.865 464.751C492.865 461.807 493.953 459.503 496.129 457.839C498.305 456.132 501.249 455.279 504.961 455.279C506.283 455.279 507.99 455.556 510.081 456.111C512.171 456.665 514.006 457.476 515.585 458.543L513.089 464.495ZM526.634 442.351C527.956 442.351 529.066 442.799 529.962 443.695C530.9 444.591 531.37 445.7 531.37 447.023C531.37 448.345 530.9 449.455 529.962 450.351C529.066 451.247 527.956 451.695 526.634 451.695C525.354 451.695 524.266 451.247 523.37 450.351C522.474 449.455 522.026 448.345 522.026 447.023C522.026 445.7 522.474 444.591 523.37 443.695C524.266 442.799 525.354 442.351 526.634 442.351ZM530.794 456.111V487.151H522.474V456.111H530.794ZM545.697 459.439C547.105 458.031 548.854 456.921 550.945 456.111C553.078 455.3 554.977 454.895 556.641 454.895C560.865 454.895 563.851 456.132 565.601 458.607C567.393 461.081 568.289 464.111 568.289 467.695V487.151H559.969V468.079C559.969 466.116 559.499 464.623 558.561 463.599C557.622 462.532 556.257 461.999 554.465 461.999C553.27 461.999 552.011 462.319 550.689 462.959C549.409 463.556 548.235 464.26 547.169 465.071V487.151H538.849V456.111H543.201L545.697 459.439ZM592.038 487.919C586.662 487.919 582.416 486.447 579.302 483.503C576.23 480.559 574.694 476.612 574.694 471.663C574.694 466.713 576.08 462.745 578.854 459.759C581.67 456.772 585.488 455.279 590.31 455.279C595.174 455.279 598.736 456.9 600.998 460.143C603.302 463.343 604.454 467.14 604.454 471.535V474.095H583.526C583.91 476.143 584.848 477.785 586.342 479.023C587.835 480.217 589.798 480.815 592.23 480.815C593.638 480.815 594.896 480.644 596.006 480.303C597.158 479.919 598.48 479.385 599.974 478.703L602.406 484.719C600.955 485.828 599.184 486.639 597.094 487.151C595.046 487.663 593.36 487.919 592.038 487.919ZM596.582 468.527C596.155 466.436 595.387 464.9 594.278 463.919C593.168 462.895 591.782 462.383 590.118 462.383C588.411 462.383 586.982 462.916 585.83 463.983C584.678 465.007 583.931 466.521 583.59 468.527H596.582Z" fill="#131313"/>
<path d="M127.326 451.503C125.278 450.863 123.656 450.415 122.462 450.159C121.267 449.86 119.816 449.711 118.11 449.711C114.654 449.711 111.987 451.119 110.11 453.935C108.232 456.751 107.294 460.612 107.294 465.519C107.294 469.743 108.083 473.391 109.662 476.463C111.24 479.535 113.886 481.071 117.598 481.071C119.432 481.071 121.139 480.879 122.718 480.495C124.339 480.111 125.811 479.641 127.134 479.087L130.27 485.231C128.606 486.084 126.6 486.767 124.254 487.279C121.907 487.791 119.838 488.047 118.046 488.047C111.262 488.047 106.334 485.871 103.262 481.519C100.19 477.167 98.6537 471.855 98.6537 465.583C98.6537 458.884 100.339 453.401 103.71 449.135C107.123 444.868 112.008 442.735 118.366 442.735C119.646 442.735 121.416 442.948 123.678 443.375C125.939 443.801 128.008 444.527 129.886 445.551L127.326 451.503ZM143.119 477.871C143.119 478.767 143.482 479.577 144.207 480.303C144.933 480.985 145.893 481.327 147.087 481.327C148.239 481.327 149.391 481.071 150.543 480.559C151.738 480.047 152.869 479.279 153.935 478.255V473.519H147.663C146.213 473.519 145.082 473.967 144.271 474.863C143.503 475.759 143.119 476.761 143.119 477.871ZM147.215 487.919C143.418 487.919 140.602 487.001 138.767 485.167C136.933 483.289 136.015 480.857 136.015 477.871C136.015 474.671 137.103 472.217 139.279 470.511C141.455 468.804 144.293 467.951 147.791 467.951H153.871C153.829 466.372 153.359 465.156 152.463 464.303C151.61 463.407 150.415 462.959 148.879 462.959C147.429 462.959 145.85 463.172 144.143 463.599C142.437 463.983 141.007 464.452 139.855 465.007L137.615 458.095C138.81 457.284 140.623 456.623 143.055 456.111C145.53 455.556 147.429 455.279 148.751 455.279C152.463 455.279 155.642 456.367 158.287 458.543C160.933 460.676 162.255 463.407 162.255 466.735V487.151H157.967L155.919 484.527C154.767 485.423 153.402 486.212 151.823 486.895C150.287 487.577 148.751 487.919 147.215 487.919ZM186.935 456.111L188.599 462.767C187.191 462.767 185.549 463.172 183.671 463.983C181.837 464.793 180.023 465.988 178.231 467.567V487.151H169.911V456.111H174.263L177.015 460.655C178.295 459.545 179.853 458.521 181.687 457.583C183.522 456.601 185.271 456.111 186.935 456.111ZM197.009 442.351C198.331 442.351 199.441 442.799 200.337 443.695C201.275 444.591 201.745 445.7 201.745 447.023C201.745 448.345 201.275 449.455 200.337 450.351C199.441 451.247 198.331 451.695 197.009 451.695C195.729 451.695 194.641 451.247 193.745 450.351C192.849 449.455 192.401 448.345 192.401 447.023C192.401 445.7 192.849 444.591 193.745 443.695C194.641 442.799 195.729 442.351 197.009 442.351ZM201.169 456.111V487.151H192.849V456.111H201.169ZM217.928 441.967V457.071C219.165 456.388 220.466 455.855 221.832 455.471C223.24 455.087 224.498 454.895 225.608 454.895C230.173 454.895 233.672 456.473 236.104 459.631C238.536 462.788 239.752 466.713 239.752 471.407C239.752 476.1 238.493 480.025 235.976 483.183C233.501 486.34 230.045 487.919 225.608 487.919C224.157 487.919 222.536 487.62 220.744 487.023C218.952 486.425 217.352 485.593 215.944 484.527L213.896 487.151H209.672V442.671L217.928 441.967ZM223.432 480.815C226.29 480.815 228.296 479.791 229.448 477.743C230.6 475.652 231.176 473.54 231.176 471.407C231.176 468.975 230.664 466.799 229.64 464.879C228.616 462.959 226.546 461.999 223.432 461.999C222.536 461.999 221.597 462.169 220.616 462.511C219.677 462.809 218.781 463.236 217.928 463.791V479.023C218.781 479.535 219.677 479.961 220.616 480.303C221.597 480.644 222.536 480.815 223.432 480.815ZM255.115 441.967V457.071C256.353 456.388 257.654 455.855 259.019 455.471C260.427 455.087 261.686 454.895 262.795 454.895C267.361 454.895 270.859 456.473 273.291 459.631C275.723 462.788 276.939 466.713 276.939 471.407C276.939 476.1 275.681 480.025 273.163 483.183C270.689 486.34 267.233 487.919 262.795 487.919C261.345 487.919 259.723 487.62 257.931 487.023C256.139 486.425 254.539 485.593 253.131 484.527L251.083 487.151H246.859V442.671L255.115 441.967ZM260.619 480.815C263.478 480.815 265.483 479.791 266.635 477.743C267.787 475.652 268.363 473.54 268.363 471.407C268.363 468.975 267.851 466.799 266.827 464.879C265.803 462.959 263.734 461.999 260.619 461.999C259.723 461.999 258.785 462.169 257.803 462.511C256.865 462.809 255.969 463.236 255.115 463.791V479.023C255.969 479.535 256.865 479.961 257.803 480.303C258.785 480.644 259.723 480.815 260.619 480.815ZM299.663 487.919C294.287 487.919 290.041 486.447 286.927 483.503C283.855 480.559 282.319 476.612 282.319 471.663C282.319 466.713 283.705 462.745 286.479 459.759C289.295 456.772 293.113 455.279 297.935 455.279C302.799 455.279 306.361 456.9 308.623 460.143C310.927 463.343 312.079 467.14 312.079 471.535V474.095H291.151C291.535 476.143 292.473 477.785 293.967 479.023C295.46 480.217 297.423 480.815 299.855 480.815C301.263 480.815 302.521 480.644 303.631 480.303C304.783 479.919 306.105 479.385 307.599 478.703L310.031 484.719C308.58 485.828 306.809 486.639 304.719 487.151C302.671 487.663 300.985 487.919 299.663 487.919ZM304.207 468.527C303.78 466.436 303.012 464.9 301.903 463.919C300.793 462.895 299.407 462.383 297.743 462.383C296.036 462.383 294.607 462.916 293.455 463.983C292.303 465.007 291.556 466.521 291.215 468.527H304.207ZM324.682 477.871C324.682 478.767 325.044 479.577 325.77 480.303C326.495 480.985 327.455 481.327 328.65 481.327C329.802 481.327 330.954 481.071 332.106 480.559C333.3 480.047 334.431 479.279 335.498 478.255V473.519H329.226C327.775 473.519 326.644 473.967 325.834 474.863C325.066 475.759 324.682 476.761 324.682 477.871ZM328.778 487.919C324.98 487.919 322.164 487.001 320.33 485.167C318.495 483.289 317.578 480.857 317.578 477.871C317.578 474.671 318.666 472.217 320.842 470.511C323.018 468.804 325.855 467.951 329.354 467.951H335.434C335.391 466.372 334.922 465.156 334.026 464.303C333.172 463.407 331.978 462.959 330.442 462.959C328.991 462.959 327.412 463.172 325.706 463.599C323.999 463.983 322.57 464.452 321.418 465.007L319.178 458.095C320.372 457.284 322.186 456.623 324.618 456.111C327.092 455.556 328.991 455.279 330.314 455.279C334.026 455.279 337.204 456.367 339.85 458.543C342.495 460.676 343.818 463.407 343.818 466.735V487.151H339.53L337.482 484.527C336.33 485.423 334.964 486.212 333.386 486.895C331.85 487.577 330.314 487.919 328.778 487.919ZM358.322 459.439C359.73 458.031 361.479 456.921 363.57 456.111C365.703 455.3 367.602 454.895 369.266 454.895C373.49 454.895 376.476 456.132 378.226 458.607C380.018 461.081 380.914 464.111 380.914 467.695V487.151H372.594V468.079C372.594 466.116 372.124 464.623 371.186 463.599C370.247 462.532 368.882 461.999 367.09 461.999C365.895 461.999 364.636 462.319 363.314 462.959C362.034 463.556 360.86 464.26 359.794 465.071V487.151H351.474V456.111H355.826L358.322 459.439ZM432.076 451.503C430.028 450.863 428.406 450.415 427.212 450.159C426.017 449.86 424.566 449.711 422.86 449.711C419.404 449.711 416.737 451.119 414.86 453.935C412.982 456.751 412.044 460.612 412.044 465.519C412.044 469.743 412.833 473.391 414.412 476.463C415.99 479.535 418.636 481.071 422.348 481.071C424.182 481.071 425.889 480.879 427.468 480.495C429.089 480.111 430.561 479.641 431.884 479.087L435.02 485.231C433.356 486.084 431.35 486.767 429.004 487.279C426.657 487.791 424.588 488.047 422.796 488.047C416.012 488.047 411.084 485.871 408.012 481.519C404.94 477.167 403.404 471.855 403.404 465.583C403.404 458.884 405.089 453.401 408.46 449.135C411.873 444.868 416.758 442.735 423.116 442.735C424.396 442.735 426.166 442.948 428.428 443.375C430.689 443.801 432.758 444.527 434.636 445.551L432.076 451.503ZM463.741 484.079C462.333 485.401 460.605 486.447 458.557 487.215C456.509 488.025 454.653 488.431 452.989 488.431C448.765 488.431 445.757 487.193 443.965 484.719C442.216 482.201 441.341 479.172 441.341 475.631V456.111H449.725V475.247C449.725 477.209 450.195 478.724 451.133 479.791C452.072 480.815 453.437 481.327 455.229 481.327C456.339 481.327 457.512 481.049 458.749 480.495C459.987 479.94 461.117 479.3 462.141 478.575V456.111H470.461V487.151H466.109L463.741 484.079ZM482.634 442.351C483.956 442.351 485.066 442.799 485.962 443.695C486.9 444.591 487.37 445.7 487.37 447.023C487.37 448.345 486.9 449.455 485.962 450.351C485.066 451.247 483.956 451.695 482.634 451.695C481.354 451.695 480.266 451.247 479.37 450.351C478.474 449.455 478.026 448.345 478.026 447.023C478.026 445.7 478.474 444.591 479.37 443.695C480.266 442.799 481.354 442.351 482.634 442.351ZM486.794 456.111V487.151H478.474V456.111H486.794ZM513.089 464.495C511.595 463.812 510.209 463.3 508.929 462.959C507.649 462.575 506.283 462.383 504.833 462.383C503.766 462.383 502.934 462.596 502.337 463.023C501.782 463.407 501.505 463.961 501.505 464.687C501.505 465.199 501.846 465.689 502.529 466.159C503.254 466.628 504.406 467.14 505.985 467.695C508.587 468.633 510.998 469.956 513.217 471.663C515.435 473.327 516.545 475.503 516.545 478.191C516.545 481.263 515.435 483.652 513.217 485.359C511.041 487.065 507.841 487.919 503.617 487.919C502.294 487.919 500.523 487.663 498.305 487.151C496.129 486.639 494.315 485.828 492.865 484.719L495.361 478.703C496.854 479.385 498.283 479.919 499.649 480.303C501.057 480.644 502.337 480.815 503.489 480.815C505.025 480.815 506.198 480.601 507.009 480.175C507.819 479.748 508.225 479.193 508.225 478.511C508.225 477.657 507.819 476.889 507.009 476.207C506.198 475.524 504.918 474.905 503.169 474.351C500.694 473.54 498.347 472.388 496.129 470.895C493.953 469.359 492.865 467.311 492.865 464.751C492.865 461.807 493.953 459.503 496.129 457.839C498.305 456.132 501.249 455.279 504.961 455.279C506.283 455.279 507.99 455.556 510.081 456.111C512.171 456.665 514.006 457.476 515.585 458.543L513.089 464.495ZM526.634 442.351C527.956 442.351 529.066 442.799 529.962 443.695C530.9 444.591 531.37 445.7 531.37 447.023C531.37 448.345 530.9 449.455 529.962 450.351C529.066 451.247 527.956 451.695 526.634 451.695C525.354 451.695 524.266 451.247 523.37 450.351C522.474 449.455 522.026 448.345 522.026 447.023C522.026 445.7 522.474 444.591 523.37 443.695C524.266 442.799 525.354 442.351 526.634 442.351ZM530.794 456.111V487.151H522.474V456.111H530.794ZM545.697 459.439C547.105 458.031 548.854 456.921 550.945 456.111C553.078 455.3 554.977 454.895 556.641 454.895C560.865 454.895 563.851 456.132 565.601 458.607C567.393 461.081 568.289 464.111 568.289 467.695V487.151H559.969V468.079C559.969 466.116 559.499 464.623 558.561 463.599C557.622 462.532 556.257 461.999 554.465 461.999C553.27 461.999 552.011 462.319 550.689 462.959C549.409 463.556 548.235 464.26 547.169 465.071V487.151H538.849V456.111H543.201L545.697 459.439ZM592.038 487.919C586.662 487.919 582.416 486.447 579.302 483.503C576.23 480.559 574.694 476.612 574.694 471.663C574.694 466.713 576.08 462.745 578.854 459.759C581.67 456.772 585.488 455.279 590.31 455.279C595.174 455.279 598.736 456.9 600.998 460.143C603.302 463.343 604.454 467.14 604.454 471.535V474.095H583.526C583.91 476.143 584.848 477.785 586.342 479.023C587.835 480.217 589.798 480.815 592.23 480.815C593.638 480.815 594.896 480.644 596.006 480.303C597.158 479.919 598.48 479.385 599.974 478.703L602.406 484.719C600.955 485.828 599.184 486.639 597.094 487.151C595.046 487.663 593.36 487.919 592.038 487.919ZM596.582 468.527C596.155 466.436 595.387 464.9 594.278 463.919C593.168 462.895 591.782 462.383 590.118 462.383C588.411 462.383 586.982 462.916 585.83 463.983C584.678 465.007 583.931 466.521 583.59 468.527H596.582Z" fill="white"/>
<path d="M83.7114 368.807C80.2554 367.591 77.6314 366.823 75.8394 366.503C74.0474 366.119 72.0634 365.927 69.8874 365.927C65.9834 365.927 62.7194 367.751 60.0954 371.399C57.4714 374.983 56.1594 379.751 56.1594 385.703C56.1594 391.847 57.5354 396.615 60.2874 400.007C63.0394 403.399 66.4634 405.095 70.5594 405.095C72.9274 405.095 75.1674 404.775 77.2794 404.135C79.3914 403.431 81.2794 402.567 82.9434 401.543L89.5674 414.599C87.0074 416.135 83.9354 417.319 80.3514 418.151C76.8314 418.983 73.4074 419.399 70.0794 419.399C59.4554 419.399 51.4554 416.263 46.0794 409.991C40.7674 403.719 38.1114 395.655 38.1114 385.799C38.1114 375.751 40.9594 367.559 46.6554 361.223C52.3514 354.823 60.0314 351.623 69.6954 351.623C72.9594 351.623 76.3194 352.103 79.7754 353.063C83.2954 353.959 86.3354 355.271 88.8954 356.999L83.7114 368.807ZM126.378 373.799L120.138 391.559H132.906L126.378 373.799ZM135.402 352.871L159.786 416.423L142.602 418.151L137.898 405.287H115.338L110.826 418.151H93.4501L117.93 352.871H135.402ZM184.26 392.423C179.908 390.247 175.556 387.431 171.204 383.975C166.852 380.455 164.676 375.911 164.676 370.343C164.74 364.967 166.948 360.519 171.3 356.999C175.652 353.415 181.54 351.623 188.964 351.623C192.228 351.623 195.588 352.103 199.044 353.063C202.564 353.959 205.604 355.271 208.164 356.999L202.98 368.807C199.524 367.591 196.9 366.823 195.108 366.503C193.316 366.119 191.332 365.927 189.156 365.927C187.172 365.927 185.604 366.407 184.452 367.367C183.3 368.263 182.724 369.319 182.724 370.535C182.724 371.943 183.684 373.191 185.604 374.279C187.588 375.303 189.924 376.519 192.612 377.927C197.22 380.295 201.668 383.271 205.956 386.855C210.244 390.439 212.388 394.887 212.388 400.199C212.388 405.703 210.052 410.279 205.38 413.927C200.772 417.575 194.436 419.399 186.372 419.399C183.044 419.399 179.268 418.919 175.044 417.959C170.884 416.935 167.524 415.655 164.964 414.119L170.724 400.967C172.388 401.991 174.724 402.951 177.732 403.847C180.804 404.679 183.524 405.095 185.892 405.095C188.644 405.095 190.724 404.551 192.132 403.463C193.604 402.375 194.34 401.223 194.34 400.007C194.34 398.855 193.284 397.607 191.172 396.263C189.06 394.919 186.756 393.639 184.26 392.423ZM248.816 373.799L242.576 391.559H255.344L248.816 373.799ZM257.84 352.871L282.224 416.423L265.04 418.151L260.336 405.287H237.776L233.264 418.151H215.888L240.368 352.871H257.84ZM289.898 418.151V352.871H311.69C318.858 352.871 325.13 354.343 330.506 357.287C335.882 360.231 338.57 365.031 338.57 371.687V372.167C338.506 374.471 337.994 376.583 337.034 378.503C336.138 380.359 334.954 382.023 333.482 383.495C336.042 385.287 338.122 387.495 339.722 390.119C341.386 392.679 342.218 395.527 342.218 398.663C342.218 406.151 339.37 411.271 333.674 414.023C327.978 416.775 321.61 418.151 314.57 418.151H289.898ZM311.114 366.599H307.37V377.639H311.306C313.994 377.639 316.202 377.223 317.93 376.391C319.658 375.559 320.522 374.279 320.522 372.551C320.522 370.567 319.69 369.095 318.026 368.135C316.362 367.111 314.058 366.599 311.114 366.599ZM314.762 391.367H307.37V404.423H314.954C317.642 404.423 319.85 403.911 321.578 402.887C323.306 401.863 324.17 400.327 324.17 398.279C324.17 396.103 323.338 394.407 321.674 393.191C320.01 391.975 317.706 391.367 314.762 391.367ZM398.621 418.151H351.773V352.871H369.245V404.423H396.989L398.621 418.151ZM433.503 373.799L427.263 391.559H440.031L433.503 373.799ZM442.527 352.871L466.911 416.423L449.727 418.151L445.023 405.287H422.463L417.951 418.151H400.575L425.055 352.871H442.527ZM474.585 418.151V352.871H490.809L515.961 388.295V352.871H533.433V418.151H517.113L492.057 383.783V418.151H474.585ZM589.586 368.807C586.13 367.591 583.506 366.823 581.714 366.503C579.922 366.119 577.938 365.927 575.762 365.927C571.858 365.927 568.594 367.751 565.97 371.399C563.346 374.983 562.034 379.751 562.034 385.703C562.034 391.847 563.41 396.615 566.162 400.007C568.914 403.399 572.338 405.095 576.434 405.095C578.802 405.095 581.042 404.775 583.154 404.135C585.266 403.431 587.154 402.567 588.818 401.543L595.442 414.599C592.882 416.135 589.81 417.319 586.226 418.151C582.706 418.983 579.282 419.399 575.954 419.399C565.33 419.399 557.33 416.263 551.954 409.991C546.642 403.719 543.986 395.655 543.986 385.799C543.986 375.751 546.834 367.559 552.53 361.223C558.226 354.823 565.906 351.623 575.57 351.623C578.834 351.623 582.194 352.103 585.65 353.063C589.17 353.959 592.21 355.271 594.77 356.999L589.586 368.807ZM632.253 373.799L626.013 391.559H638.781L632.253 373.799ZM641.277 352.871L665.661 416.423L648.477 418.151L643.773 405.287H621.213L616.701 418.151H599.325L623.805 352.871H641.277Z" fill="#131313"/>
<path d="M83.7114 368.807C80.2554 367.591 77.6314 366.823 75.8394 366.503C74.0474 366.119 72.0634 365.927 69.8874 365.927C65.9834 365.927 62.7194 367.751 60.0954 371.399C57.4714 374.983 56.1594 379.751 56.1594 385.703C56.1594 391.847 57.5354 396.615 60.2874 400.007C63.0394 403.399 66.4634 405.095 70.5594 405.095C72.9274 405.095 75.1674 404.775 77.2794 404.135C79.3914 403.431 81.2794 402.567 82.9434 401.543L89.5674 414.599C87.0074 416.135 83.9354 417.319 80.3514 418.151C76.8314 418.983 73.4074 419.399 70.0794 419.399C59.4554 419.399 51.4554 416.263 46.0794 409.991C40.7674 403.719 38.1114 395.655 38.1114 385.799C38.1114 375.751 40.9594 367.559 46.6554 361.223C52.3514 354.823 60.0314 351.623 69.6954 351.623C72.9594 351.623 76.3194 352.103 79.7754 353.063C83.2954 353.959 86.3354 355.271 88.8954 356.999L83.7114 368.807ZM126.378 373.799L120.138 391.559H132.906L126.378 373.799ZM135.402 352.871L159.786 416.423L142.602 418.151L137.898 405.287H115.338L110.826 418.151H93.4501L117.93 352.871H135.402ZM184.26 392.423C179.908 390.247 175.556 387.431 171.204 383.975C166.852 380.455 164.676 375.911 164.676 370.343C164.74 364.967 166.948 360.519 171.3 356.999C175.652 353.415 181.54 351.623 188.964 351.623C192.228 351.623 195.588 352.103 199.044 353.063C202.564 353.959 205.604 355.271 208.164 356.999L202.98 368.807C199.524 367.591 196.9 366.823 195.108 366.503C193.316 366.119 191.332 365.927 189.156 365.927C187.172 365.927 185.604 366.407 184.452 367.367C183.3 368.263 182.724 369.319 182.724 370.535C182.724 371.943 183.684 373.191 185.604 374.279C187.588 375.303 189.924 376.519 192.612 377.927C197.22 380.295 201.668 383.271 205.956 386.855C210.244 390.439 212.388 394.887 212.388 400.199C212.388 405.703 210.052 410.279 205.38 413.927C200.772 417.575 194.436 419.399 186.372 419.399C183.044 419.399 179.268 418.919 175.044 417.959C170.884 416.935 167.524 415.655 164.964 414.119L170.724 400.967C172.388 401.991 174.724 402.951 177.732 403.847C180.804 404.679 183.524 405.095 185.892 405.095C188.644 405.095 190.724 404.551 192.132 403.463C193.604 402.375 194.34 401.223 194.34 400.007C194.34 398.855 193.284 397.607 191.172 396.263C189.06 394.919 186.756 393.639 184.26 392.423ZM248.816 373.799L242.576 391.559H255.344L248.816 373.799ZM257.84 352.871L282.224 416.423L265.04 418.151L260.336 405.287H237.776L233.264 418.151H215.888L240.368 352.871H257.84ZM289.898 418.151V352.871H311.69C318.858 352.871 325.13 354.343 330.506 357.287C335.882 360.231 338.57 365.031 338.57 371.687V372.167C338.506 374.471 337.994 376.583 337.034 378.503C336.138 380.359 334.954 382.023 333.482 383.495C336.042 385.287 338.122 387.495 339.722 390.119C341.386 392.679 342.218 395.527 342.218 398.663C342.218 406.151 339.37 411.271 333.674 414.023C327.978 416.775 321.61 418.151 314.57 418.151H289.898ZM311.114 366.599H307.37V377.639H311.306C313.994 377.639 316.202 377.223 317.93 376.391C319.658 375.559 320.522 374.279 320.522 372.551C320.522 370.567 319.69 369.095 318.026 368.135C316.362 367.111 314.058 366.599 311.114 366.599ZM314.762 391.367H307.37V404.423H314.954C317.642 404.423 319.85 403.911 321.578 402.887C323.306 401.863 324.17 400.327 324.17 398.279C324.17 396.103 323.338 394.407 321.674 393.191C320.01 391.975 317.706 391.367 314.762 391.367ZM398.621 418.151H351.773V352.871H369.245V404.423H396.989L398.621 418.151ZM433.503 373.799L427.263 391.559H440.031L433.503 373.799ZM442.527 352.871L466.911 416.423L449.727 418.151L445.023 405.287H422.463L417.951 418.151H400.575L425.055 352.871H442.527ZM474.585 418.151V352.871H490.809L515.961 388.295V352.871H533.433V418.151H517.113L492.057 383.783V418.151H474.585ZM589.586 368.807C586.13 367.591 583.506 366.823 581.714 366.503C579.922 366.119 577.938 365.927 575.762 365.927C571.858 365.927 568.594 367.751 565.97 371.399C563.346 374.983 562.034 379.751 562.034 385.703C562.034 391.847 563.41 396.615 566.162 400.007C568.914 403.399 572.338 405.095 576.434 405.095C578.802 405.095 581.042 404.775 583.154 404.135C585.266 403.431 587.154 402.567 588.818 401.543L595.442 414.599C592.882 416.135 589.81 417.319 586.226 418.151C582.706 418.983 579.282 419.399 575.954 419.399C565.33 419.399 557.33 416.263 551.954 409.991C546.642 403.719 543.986 395.655 543.986 385.799C543.986 375.751 546.834 367.559 552.53 361.223C558.226 354.823 565.906 351.623 575.57 351.623C578.834 351.623 582.194 352.103 585.65 353.063C589.17 353.959 592.21 355.271 594.77 356.999L589.586 368.807ZM632.253 373.799L626.013 391.559H638.781L632.253 373.799ZM641.277 352.871L665.661 416.423L648.477 418.151L643.773 405.287H621.213L616.701 418.151H599.325L623.805 352.871H641.277Z" fill="white"/>
<path fill-rule="evenodd" clip-rule="evenodd" d="M2.14453 258.037C8.27871 235.954 25.0455 220.414 64.3042 201.603L98.2467 185.245L105.608 201.603C115.422 222.868 110.924 235.954 81.8889 269.897C58.579 297.705 41.4033 311.2 29.9528 311.2C14.4129 311.2 50.366 273.584 58.8157 264.078C71.2194 249.361 78.1644 240.688 90.5024 222.885C54.0084 244.96 36.2209 260.23 7.21292 290.407C-0.148087 292.86 -1.94492 273.577 2.14453 258.037Z" fill="#7FCC38"/>
<path d="M7.21292 290.407C15.3918 287.544 87.3337 226.054 90.5024 222.885C54.0084 244.96 36.2209 260.23 7.21292 290.407Z" fill="#6DAD31"/>
<path d="M176.04 180.535C168.27 183.807 157.229 188.305 151.912 190.759C151.912 190.759 143.678 193.695 142.622 194.751C141.566 195.807 153.957 202.619 153.957 202.619C160.5 207.117 170.724 213.66 177.267 216.932C187.491 222.657 188.309 222.248 188.309 214.478C188.309 209.162 192.264 205.113 192.264 205.113C186.375 202.356 167.861 199.283 167.861 198.976C167.861 198.669 173.252 198.976 180.646 200.032C188.434 201.145 194.377 203.201 196.489 202.145C198.602 201.088 196.966 193.657 195.671 186.81C194.377 179.964 195.433 175.739 193.625 173.992C191.817 172.246 183.81 177.264 176.04 180.535Z" fill="#7FCC38"/>
<path d="M251.695 281.355C264.372 287.489 284.411 310.799 284.411 318.977C284.411 321.022 244.743 321.84 196.079 321.84L107.746 321.022L126.558 303.847C136.781 294.441 153.139 284.217 162.954 280.946C187.491 271.949 233.702 272.358 251.695 281.355Z" fill="#FFCB19"/>
<path d="M237.791 231.463C253.331 248.639 266.826 264.588 267.644 267.041C268.462 269.495 263.555 270.313 253.331 268.677C244.334 267.041 225.523 265.815 211.21 265.815H185.037L187.491 245.367C189.944 226.147 200.986 200.383 207.12 200.383C208.347 200.383 222.251 214.287 237.791 231.463Z" fill="#7FCC38"/>
<path d="M299.133 290.351C312.628 296.894 327.759 306.709 332.666 312.025L341.663 321.431L319.171 321.84C296.679 322.249 296.27 321.84 288.5 306.709C284.002 298.121 276.232 287.898 271.325 284.626C255.376 273.585 272.551 276.856 299.133 290.351Z" fill="#FB462E"/>
<path d="M399.733 291.169C406.685 297.303 419.363 315.297 419.363 319.386C419.363 324.703 348.615 321.431 346.979 316.115C344.935 310.39 376.832 286.262 386.647 286.262C390.328 286.262 396.053 288.716 399.733 291.169Z" fill="#7FCC38"/>
<path d="M598.89 280.537C632.423 320.204 631.197 321.431 563.312 319.795L513.011 318.569L530.596 297.303C540.411 285.444 552.27 271.54 557.177 265.815C562.494 260.089 566.583 254.364 566.583 252.728C566.583 244.549 574.762 251.91 598.89 280.537Z" fill="#FB462E"/>
<path d="M557.995 256.818C509.331 316.933 503.197 323.067 491.337 323.067C479.478 323.067 479.478 322.658 503.606 297.303C517.101 283.399 535.094 264.179 544.091 254.364C562.085 234.735 574.353 236.37 557.995 256.818Z" fill="#FFCB19"/>
<path d="M522.417 266.632C506.468 282.99 488.884 301.802 483.567 308.345C475.388 317.342 469.254 320.613 454.123 321.84L434.494 323.476L451.261 303.847C481.522 268.268 508.104 244.549 522.008 241.278C551.861 234.326 552.27 236.37 522.417 266.632Z" fill="#FB462E"/>
<path d="M450.962 290.351C439.983 303.749 431.631 315.506 431.631 318.977C431.222 322.249 427.542 317.751 423.043 308.754C415.682 293.623 415.682 291.578 421.408 273.585C441.037 215.105 482.749 182.799 538.775 183.208C571.082 183.208 593.982 193.84 611.158 216.741L621.791 231.054L609.522 221.24C572.717 193.022 521.599 193.022 486.43 222.057C470.481 235.553 450.962 280.128 450.962 290.351Z" fill="#7FCC38"/>
<path d="M378.468 128.818C378.468 179.527 376.832 208.562 374.379 208.562C371.925 208.562 356.385 196.294 340.027 180.754L309.356 153.355V101.01L308.948 49.0735H343.708H378.468V128.818Z" fill="#FFCB19"/>
<path d="M398.916 134.952C399.324 210.198 398.507 220.422 392.781 218.377C383.785 214.696 383.376 49.0735 392.372 49.0735C397.28 49.0735 398.507 63.3865 398.916 134.952Z" fill="#FB462E"/>
<path d="M189.535 82.607C200.577 101.418 215.708 128.409 223.069 143.131C239.427 175.438 265.19 241.687 262.737 244.14C259.874 246.594 229.203 208.562 230.021 204.064C230.839 202.019 229.612 200.383 227.158 200.383C225.114 200.383 224.705 197.521 225.932 193.431C227.976 188.524 227.158 187.706 223.069 190.16C219.388 192.613 218.571 191.795 221.024 188.115C222.66 185.252 221.842 181.981 219.388 179.936C216.526 178.3 214.072 174.62 213.663 171.348C212.436 162.76 178.494 98.9648 173.996 96.1022C168.679 92.8306 168.679 96.5111 173.996 105.508C180.539 116.958 210.801 189.342 209.574 190.569C208.756 191.386 199.35 179.527 188.309 164.396L168.27 136.997L166.634 92.8306C165.817 68.7028 165.817 49.0735 167.043 49.0735C167.861 49.0735 178.085 64.2044 189.535 82.607Z" fill="#7FCC38"/>
<path d="M324.896 177.482L346.979 199.565L323.67 227.783C301.586 253.546 283.184 269.904 274.596 269.904C269.28 269.904 273.778 175.438 279.503 164.396C287.682 149.674 300.769 153.355 324.896 177.482Z" fill="#7FCC38"/>
<path d="M384.193 24.9457C389.919 27.8083 395.235 32.3067 396.462 35.1693C398.098 39.6677 390.328 40.8945 355.976 40.8945C319.989 40.8945 313.037 39.6677 313.037 34.7604C313.037 31.0799 317.126 26.5814 322.443 24.5367C335.529 19.2204 372.334 19.6294 384.193 24.9457Z" fill="#7FCC38"/>
<path d="M358.021 6.13418C358.021 9.40573 356.385 12.2683 353.932 12.2683C351.887 12.2683 349.842 9.40573 349.842 6.13418C349.842 2.86262 351.887 -1.64476e-05 353.932 -1.64476e-05C356.385 -1.64476e-05 358.021 2.86262 358.021 6.13418Z" fill="#FFCB19"/>
<path d="M324.078 282.99C342.89 292.396 348.615 297.303 345.344 300.984C342.481 304.664 336.347 302.62 320.807 291.987C309.356 284.217 297.497 278.083 294.225 278.083C290.954 278.083 288.5 276.038 288.5 273.993C288.5 267.041 297.497 269.495 324.078 282.99Z" fill="#FFCB19"/>
<path d="M397.689 255.182C397.689 279.31 396.871 282.172 390.737 280.128C386.647 278.901 377.241 280.946 369.471 284.626C355.567 291.169 354.749 291.169 331.031 277.674C317.944 270.313 306.085 263.77 305.267 263.361C304.858 262.543 314.673 249.457 327.759 233.917L351.887 205.7L374.788 217.15L397.28 228.192L397.689 255.182Z" fill="#FFCB19"/>
<path d="M674.545 300.984C683.133 304.255 683.133 317.342 674.545 320.613C665.957 323.885 660.641 320.204 660.641 311.208C660.641 299.757 664.321 297.303 674.545 300.984Z" fill="#FFCB19"/>
<path fill-rule="evenodd" clip-rule="evenodd" d="M453.501 287.279C453.451 287.369 453.401 287.456 453.352 287.543C451.853 290.179 450.962 291.418 450.962 290.351C450.964 290.349 450.966 290.346 450.969 290.343C451.799 289.33 452.644 288.308 453.501 287.279Z" fill="#131313"/>
<path fill-rule="evenodd" clip-rule="evenodd" d="M450.969 290.343C451.799 289.33 452.644 288.308 453.501 287.279L453.352 287.543C451.853 290.179 450.962 291.418 450.962 290.351L450.969 290.343Z" fill="#131313"/>
<path d="M479.069 68.703C461.893 119.003 455.35 132.09 441.446 141.086C435.72 144.767 431.631 146.403 432.449 144.767C451.669 107.553 470.481 58.0704 462.302 66.2493C460.666 67.8851 452.487 83.834 443.899 102.236C424.679 143.54 422.634 145.585 425.906 120.23C428.359 103.463 433.267 94.8755 457.803 64.6135C473.752 44.9841 488.065 29.0352 489.701 29.0352C491.337 28.6263 486.43 46.6199 479.069 68.703Z" fill="#7FCC38"/>
<path d="M218.98 34.7602C214.481 40.0765 215.299 42.5302 222.251 50.3002C226.75 55.2075 238.2 75.2459 247.197 94.8752C256.194 114.914 264.782 130.862 266.008 130.862C270.098 130.862 263.146 109.188 250.468 81.789C243.925 67.0669 238.609 50.7091 239.018 45.3928C239.836 30.2618 227.976 24.1277 218.98 34.7602Z" fill="#FB462E"/>
<path d="M641.829 104.281C644.692 111.642 645.51 111.233 599.299 120.639C541.638 132.089 485.203 155.808 445.944 185.661L429.586 197.93L443.9 182.39C476.615 147.22 531.005 119.821 595.209 105.917C638.967 96.92 638.967 96.92 641.829 104.281Z" fill="#FB462E"/>
<path d="M633.241 174.211C625.88 177.483 619.746 181.981 619.746 184.026C619.746 189.342 618.928 189.342 641.42 181.572C652.053 177.892 660.641 173.393 660.641 171.348C660.641 166.032 648.781 167.259 633.241 174.211Z" fill="#FB462E"/>
<path d="M132.06 144.052C132.06 149.886 127.331 154.615 121.497 154.615C115.664 154.615 110.935 149.886 110.935 144.052C110.935 138.219 115.664 133.49 121.497 133.49C127.331 133.49 132.06 138.219 132.06 144.052Z" fill="#7FCC38"/>
<path d="M679.861 230.645C678.634 233.917 680.27 238.824 683.542 241.687C688.449 245.776 690.903 245.367 696.219 240.46C699.491 236.779 701.126 231.872 699.9 229.418C695.81 222.875 682.315 223.693 679.861 230.645Z" fill="#FB462E"/>
<path d="M427.542 272.767C427.542 274.812 431.222 280.128 435.721 284.217C440.219 288.307 443.9 289.942 443.9 287.489C443.9 285.444 440.219 280.128 435.721 276.038C431.222 271.949 427.542 270.313 427.542 272.767Z" fill="#131313"/>
<path d="M88.1169 298.121C88.1169 300.166 90.9796 303.029 94.6601 304.256C103.248 307.527 103.248 307.527 106.111 300.575C107.746 296.077 105.702 294.441 98.3406 294.441C92.6153 294.441 88.1169 296.077 88.1169 298.121Z" fill="#FFCB19"/>
<path d="M67.6696 310.39C64.8069 316.524 65.2159 319.795 70.1232 324.703C79.12 333.7 87.8339 329.029 91.9233 320.441C96.0128 311.853 89.9007 310.39 87.7079 306.3C84.5298 300.373 72.5769 301.802 67.6696 310.39ZM86.0721 318.977C84.8453 321.022 80.7558 323.067 77.4843 323.067C74.2127 323.067 71.759 321.022 71.759 318.977C71.759 316.524 75.4395 314.888 80.3469 314.888C84.8453 314.888 87.299 316.524 86.0721 318.977Z" fill="#FFCB19"/>
</svg>
