<svg width="721" height="504" viewBox="0 0 721 504" fill="none" xmlns="http://www.w3.org/2000/svg">
<path d="M345.774 466.495L360.268 452L374.763 466.495L360.268 480.989L345.774 466.495Z" fill="#131313"/>
<path d="M345.774 466.495L360.268 452L374.763 466.495L360.268 480.989L345.774 466.495Z" fill="white"/>
<path fill-rule="evenodd" clip-rule="evenodd" d="M122 467.374C122 465.015 123.912 463.103 126.27 463.103H307.339C309.698 463.103 311.61 465.015 311.61 467.374C311.61 469.732 309.698 471.644 307.339 471.644H126.27C123.912 471.644 122 469.732 122 467.374Z" fill="#131313"/>
<path fill-rule="evenodd" clip-rule="evenodd" d="M122 467.374C122 465.015 123.912 463.103 126.27 463.103H307.339C309.698 463.103 311.61 465.015 311.61 467.374C311.61 469.732 309.698 471.644 307.339 471.644H126.27C123.912 471.644 122 469.732 122 467.374Z" fill="white"/>
<path fill-rule="evenodd" clip-rule="evenodd" d="M408.977 467.374C408.977 465.015 410.889 463.103 413.248 463.103H594.316C596.675 463.103 598.587 465.015 598.587 467.374C598.587 469.732 596.675 471.644 594.316 471.644H413.248C410.889 471.644 408.977 469.732 408.977 467.374Z" fill="#131313"/>
<path fill-rule="evenodd" clip-rule="evenodd" d="M408.977 467.374C408.977 465.015 410.889 463.103 413.248 463.103H594.316C596.675 463.103 598.587 465.015 598.587 467.374C598.587 469.732 596.675 471.644 594.316 471.644H413.248C410.889 471.644 408.977 469.732 408.977 467.374Z" fill="white"/>
<path d="M93.6976 382.656C90.2416 381.44 87.6176 380.672 85.8256 380.352C84.0336 379.968 82.0496 379.776 79.8736 379.776C75.9696 379.776 72.7056 381.6 70.0816 385.248C67.4576 388.832 66.1456 393.6 66.1456 399.552C66.1456 405.696 67.5216 410.464 70.2736 413.856C73.0256 417.248 76.4496 418.944 80.5456 418.944C82.9136 418.944 85.1536 418.624 87.2656 417.984C89.3776 417.28 91.2656 416.416 92.9296 415.392L99.5536 428.448C96.9936 429.984 93.9216 431.168 90.3376 432C86.8176 432.832 83.3936 433.248 80.0656 433.248C69.4416 433.248 61.4416 430.112 56.0656 423.84C50.7536 417.568 48.0976 409.504 48.0976 399.648C48.0976 389.6 50.9456 381.408 56.6416 375.072C62.3376 368.672 70.0176 365.472 79.6816 365.472C82.9456 365.472 86.3056 365.952 89.7616 366.912C93.2816 367.808 96.3216 369.12 98.8816 370.848L93.6976 382.656ZM136.364 387.648L130.124 405.408H142.892L136.364 387.648ZM145.388 366.72L169.772 430.272L152.588 432L147.884 419.136H125.324L120.812 432H103.436L127.916 366.72H145.388ZM194.246 406.272C189.894 404.096 185.542 401.28 181.19 397.824C176.838 394.304 174.662 389.76 174.662 384.192C174.726 378.816 176.934 374.368 181.286 370.848C185.638 367.264 191.526 365.472 198.95 365.472C202.214 365.472 205.574 365.952 209.03 366.912C212.55 367.808 215.59 369.12 218.15 370.848L212.966 382.656C209.51 381.44 206.886 380.672 205.094 380.352C203.302 379.968 201.318 379.776 199.142 379.776C197.158 379.776 195.59 380.256 194.438 381.216C193.286 382.112 192.71 383.168 192.71 384.384C192.71 385.792 193.67 387.04 195.59 388.128C197.574 389.152 199.91 390.368 202.598 391.776C207.206 394.144 211.654 397.12 215.942 400.704C220.23 404.288 222.374 408.736 222.374 414.048C222.374 419.552 220.038 424.128 215.366 427.776C210.758 431.424 204.422 433.248 196.358 433.248C193.03 433.248 189.254 432.768 185.03 431.808C180.87 430.784 177.51 429.504 174.95 427.968L180.71 414.816C182.374 415.84 184.71 416.8 187.718 417.696C190.79 418.528 193.51 418.944 195.878 418.944C198.63 418.944 200.71 418.4 202.118 417.312C203.59 416.224 204.326 415.072 204.326 413.856C204.326 412.704 203.27 411.456 201.158 410.112C199.046 408.768 196.742 407.488 194.246 406.272ZM258.802 387.648L252.562 405.408H265.33L258.802 387.648ZM267.826 366.72L292.21 430.272L275.026 432L270.322 419.136H247.762L243.25 432H225.874L250.354 366.72H267.826ZM299.884 432V366.72H321.676C328.844 366.72 335.116 368.192 340.492 371.136C345.868 374.08 348.556 378.88 348.556 385.536V386.016C348.492 388.32 347.98 390.432 347.02 392.352C346.124 394.208 344.94 395.872 343.468 397.344C346.028 399.136 348.108 401.344 349.708 403.968C351.372 406.528 352.204 409.376 352.204 412.512C352.204 420 349.356 425.12 343.66 427.872C337.964 430.624 331.596 432 324.556 432H299.884ZM321.1 380.448H317.356V391.488H321.292C323.98 391.488 326.188 391.072 327.916 390.24C329.644 389.408 330.508 388.128 330.508 386.4C330.508 384.416 329.676 382.944 328.012 381.984C326.348 380.96 324.044 380.448 321.1 380.448ZM324.748 405.216H317.356V418.272H324.94C327.628 418.272 329.836 417.76 331.564 416.736C333.292 415.712 334.156 414.176 334.156 412.128C334.156 409.952 333.324 408.256 331.66 407.04C329.996 405.824 327.692 405.216 324.748 405.216ZM408.607 432H361.759V366.72H379.231V418.272H406.975L408.607 432ZM443.489 387.648L437.249 405.408H450.017L443.489 387.648ZM452.513 366.72L476.897 430.272L459.713 432L455.009 419.136H432.449L427.937 432H410.561L435.041 366.72H452.513ZM484.571 432V366.72H500.795L525.947 402.144V366.72H543.419V432H527.099L502.043 397.632V432H484.571ZM599.573 382.656C596.117 381.44 593.493 380.672 591.701 380.352C589.909 379.968 587.925 379.776 585.749 379.776C581.845 379.776 578.581 381.6 575.957 385.248C573.333 388.832 572.021 393.6 572.021 399.552C572.021 405.696 573.397 410.464 576.149 413.856C578.901 417.248 582.325 418.944 586.421 418.944C588.789 418.944 591.029 418.624 593.141 417.984C595.253 417.28 597.141 416.416 598.805 415.392L605.429 428.448C602.869 429.984 599.797 431.168 596.213 432C592.693 432.832 589.269 433.248 585.941 433.248C575.317 433.248 567.317 430.112 561.941 423.84C556.629 417.568 553.973 409.504 553.973 399.648C553.973 389.6 556.821 381.408 562.517 375.072C568.213 368.672 575.893 365.472 585.557 365.472C588.821 365.472 592.181 365.952 595.637 366.912C599.157 367.808 602.197 369.12 604.757 370.848L599.573 382.656ZM642.239 387.648L635.999 405.408H648.767L642.239 387.648ZM651.263 366.72L675.647 430.272L658.463 432L653.759 419.136H631.199L626.687 432H609.311L633.791 366.72H651.263Z" fill="#131313"/>
<path d="M93.6976 382.656C90.2416 381.44 87.6176 380.672 85.8256 380.352C84.0336 379.968 82.0496 379.776 79.8736 379.776C75.9696 379.776 72.7056 381.6 70.0816 385.248C67.4576 388.832 66.1456 393.6 66.1456 399.552C66.1456 405.696 67.5216 410.464 70.2736 413.856C73.0256 417.248 76.4496 418.944 80.5456 418.944C82.9136 418.944 85.1536 418.624 87.2656 417.984C89.3776 417.28 91.2656 416.416 92.9296 415.392L99.5536 428.448C96.9936 429.984 93.9216 431.168 90.3376 432C86.8176 432.832 83.3936 433.248 80.0656 433.248C69.4416 433.248 61.4416 430.112 56.0656 423.84C50.7536 417.568 48.0976 409.504 48.0976 399.648C48.0976 389.6 50.9456 381.408 56.6416 375.072C62.3376 368.672 70.0176 365.472 79.6816 365.472C82.9456 365.472 86.3056 365.952 89.7616 366.912C93.2816 367.808 96.3216 369.12 98.8816 370.848L93.6976 382.656ZM136.364 387.648L130.124 405.408H142.892L136.364 387.648ZM145.388 366.72L169.772 430.272L152.588 432L147.884 419.136H125.324L120.812 432H103.436L127.916 366.72H145.388ZM194.246 406.272C189.894 404.096 185.542 401.28 181.19 397.824C176.838 394.304 174.662 389.76 174.662 384.192C174.726 378.816 176.934 374.368 181.286 370.848C185.638 367.264 191.526 365.472 198.95 365.472C202.214 365.472 205.574 365.952 209.03 366.912C212.55 367.808 215.59 369.12 218.15 370.848L212.966 382.656C209.51 381.44 206.886 380.672 205.094 380.352C203.302 379.968 201.318 379.776 199.142 379.776C197.158 379.776 195.59 380.256 194.438 381.216C193.286 382.112 192.71 383.168 192.71 384.384C192.71 385.792 193.67 387.04 195.59 388.128C197.574 389.152 199.91 390.368 202.598 391.776C207.206 394.144 211.654 397.12 215.942 400.704C220.23 404.288 222.374 408.736 222.374 414.048C222.374 419.552 220.038 424.128 215.366 427.776C210.758 431.424 204.422 433.248 196.358 433.248C193.03 433.248 189.254 432.768 185.03 431.808C180.87 430.784 177.51 429.504 174.95 427.968L180.71 414.816C182.374 415.84 184.71 416.8 187.718 417.696C190.79 418.528 193.51 418.944 195.878 418.944C198.63 418.944 200.71 418.4 202.118 417.312C203.59 416.224 204.326 415.072 204.326 413.856C204.326 412.704 203.27 411.456 201.158 410.112C199.046 408.768 196.742 407.488 194.246 406.272ZM258.802 387.648L252.562 405.408H265.33L258.802 387.648ZM267.826 366.72L292.21 430.272L275.026 432L270.322 419.136H247.762L243.25 432H225.874L250.354 366.72H267.826ZM299.884 432V366.72H321.676C328.844 366.72 335.116 368.192 340.492 371.136C345.868 374.08 348.556 378.88 348.556 385.536V386.016C348.492 388.32 347.98 390.432 347.02 392.352C346.124 394.208 344.94 395.872 343.468 397.344C346.028 399.136 348.108 401.344 349.708 403.968C351.372 406.528 352.204 409.376 352.204 412.512C352.204 420 349.356 425.12 343.66 427.872C337.964 430.624 331.596 432 324.556 432H299.884ZM321.1 380.448H317.356V391.488H321.292C323.98 391.488 326.188 391.072 327.916 390.24C329.644 389.408 330.508 388.128 330.508 386.4C330.508 384.416 329.676 382.944 328.012 381.984C326.348 380.96 324.044 380.448 321.1 380.448ZM324.748 405.216H317.356V418.272H324.94C327.628 418.272 329.836 417.76 331.564 416.736C333.292 415.712 334.156 414.176 334.156 412.128C334.156 409.952 333.324 408.256 331.66 407.04C329.996 405.824 327.692 405.216 324.748 405.216ZM408.607 432H361.759V366.72H379.231V418.272H406.975L408.607 432ZM443.489 387.648L437.249 405.408H450.017L443.489 387.648ZM452.513 366.72L476.897 430.272L459.713 432L455.009 419.136H432.449L427.937 432H410.561L435.041 366.72H452.513ZM484.571 432V366.72H500.795L525.947 402.144V366.72H543.419V432H527.099L502.043 397.632V432H484.571ZM599.573 382.656C596.117 381.44 593.493 380.672 591.701 380.352C589.909 379.968 587.925 379.776 585.749 379.776C581.845 379.776 578.581 381.6 575.957 385.248C573.333 388.832 572.021 393.6 572.021 399.552C572.021 405.696 573.397 410.464 576.149 413.856C578.901 417.248 582.325 418.944 586.421 418.944C588.789 418.944 591.029 418.624 593.141 417.984C595.253 417.28 597.141 416.416 598.805 415.392L605.429 428.448C602.869 429.984 599.797 431.168 596.213 432C592.693 432.832 589.269 433.248 585.941 433.248C575.317 433.248 567.317 430.112 561.941 423.84C556.629 417.568 553.973 409.504 553.973 399.648C553.973 389.6 556.821 381.408 562.517 375.072C568.213 368.672 575.893 365.472 585.557 365.472C588.821 365.472 592.181 365.952 595.637 366.912C599.157 367.808 602.197 369.12 604.757 370.848L599.573 382.656ZM642.239 387.648L635.999 405.408H648.767L642.239 387.648ZM651.263 366.72L675.647 430.272L658.463 432L653.759 419.136H631.199L626.687 432H609.311L633.791 366.72H651.263Z" fill="white"/>
<path fill-rule="evenodd" clip-rule="evenodd" d="M2.23327 265.92C8.54724 243.189 25.8055 227.194 66.2149 207.831L101.152 190.994L108.729 207.831C118.831 229.72 114.201 243.189 84.315 278.127C60.3219 306.75 42.6427 320.641 30.8566 320.641C14.8613 320.641 51.8681 281.922 60.5656 272.137C73.3328 256.989 80.4813 248.062 93.1809 229.737C55.6173 252.46 37.3084 268.177 7.45022 299.238C-0.126549 301.764 -1.97604 281.915 2.23327 265.92Z" fill="#7FCC38"/>
<path d="M7.45022 299.238C15.8688 296.291 89.9194 232.999 93.1809 229.737C55.6173 252.46 37.3084 268.177 7.45022 299.238Z" fill="#6DAD31"/>
<path d="M181.226 186.146C173.228 189.514 161.863 194.144 156.391 196.67C156.391 196.67 147.915 199.691 146.828 200.778C145.741 201.866 158.495 208.877 158.495 208.877C165.23 213.507 175.754 220.242 182.488 223.609C193.012 229.502 193.854 229.081 193.854 221.084C193.854 215.612 197.925 211.444 197.925 211.444C191.864 208.606 172.807 205.443 172.807 205.127C172.807 204.811 178.356 205.127 185.966 206.214C193.983 207.36 200.1 209.476 202.274 208.389C204.448 207.302 202.765 199.652 201.432 192.605C200.1 185.558 201.187 181.209 199.326 179.411C197.465 177.614 189.223 182.779 181.226 186.146Z" fill="#7FCC38"/>
<path d="M259.098 289.92C272.147 296.234 292.773 320.228 292.773 328.646C292.773 330.751 251.942 331.593 201.851 331.593L110.93 330.751L130.293 313.072C140.816 303.39 157.654 292.867 167.756 289.5C193.012 280.239 240.577 280.66 259.098 289.92Z" fill="#FFCB19"/>
<path d="M244.787 238.567C260.782 256.246 274.673 272.662 275.515 275.188C276.356 277.713 271.305 278.555 260.782 276.872C251.521 275.188 232.159 273.925 217.426 273.925H190.486L193.012 252.878C195.538 233.095 206.903 206.576 213.217 206.576C214.479 206.576 228.791 220.888 244.787 238.567Z" fill="#7FCC38"/>
<path d="M307.926 299.181C321.817 305.916 337.392 316.018 342.443 321.49L351.703 331.172L328.552 331.593C305.401 332.014 304.98 331.593 296.982 316.018C292.352 307.179 284.354 296.655 279.303 293.288C262.887 281.923 280.566 285.29 307.926 299.181Z" fill="#FB462E"/>
<path d="M411.476 300.023C418.631 306.337 431.68 324.858 431.68 329.067C431.68 334.539 358.859 331.172 357.175 325.7C355.071 319.807 387.903 294.972 398.006 294.972C401.794 294.972 407.687 297.497 411.476 300.023Z" fill="#7FCC38"/>
<path d="M616.469 289.079C650.986 329.909 649.723 331.172 579.848 329.488L528.074 328.225L546.174 306.337C556.276 294.13 568.483 279.818 573.534 273.925C579.007 268.032 583.216 262.139 583.216 260.455C583.216 252.037 591.634 259.613 616.469 289.079Z" fill="#FB462E"/>
<path d="M574.376 264.665C524.285 326.542 517.971 332.856 505.764 332.856C493.557 332.856 493.557 332.435 518.392 306.337C532.283 292.025 550.804 272.241 560.065 262.139C578.586 241.934 591.214 243.618 574.376 264.665Z" fill="#FFCB19"/>
<path d="M537.755 274.767C521.339 291.604 503.239 310.967 497.767 317.702C489.348 326.963 483.034 330.33 467.46 331.593L447.255 333.276L464.513 313.072C495.662 276.451 523.023 252.037 537.334 248.669C568.062 241.513 568.483 243.618 537.755 274.767Z" fill="#FB462E"/>
<path d="M464.206 299.181C452.905 312.972 444.308 325.073 444.308 328.646C443.887 332.014 440.099 327.383 435.469 318.123C427.892 302.548 427.892 300.444 433.785 281.923C453.99 221.73 496.925 188.476 554.592 188.897C587.846 188.897 611.418 199.841 629.097 223.413L640.042 238.146L627.414 228.044C589.53 198.999 536.913 198.999 500.713 228.885C484.297 242.776 464.206 288.658 464.206 299.181Z" fill="#7FCC38"/>
<path d="M389.587 132.913C389.587 185.108 387.903 214.995 385.378 214.995C382.852 214.995 366.857 202.367 350.02 186.371L318.45 158.169V104.289L318.029 50.8311H353.808H389.587V132.913Z" fill="#FFCB19"/>
<path d="M410.634 139.227C411.055 216.678 410.213 227.202 404.32 225.097C395.059 221.309 394.638 50.8311 403.899 50.8311C408.95 50.8311 410.213 65.5637 410.634 139.227Z" fill="#FB462E"/>
<path d="M195.117 85.3476C206.482 104.71 222.056 132.492 229.633 147.645C246.47 180.899 272.989 249.09 270.463 251.616C267.517 254.141 235.947 214.995 236.789 210.364C237.631 208.26 236.368 206.576 233.842 206.576C231.738 206.576 231.317 203.629 232.58 199.42C234.684 194.369 233.842 193.527 229.633 196.053C225.845 198.578 225.003 197.736 227.528 193.948C229.212 191.001 228.37 187.634 225.845 185.529C222.898 183.846 220.372 180.057 219.952 176.69C218.689 167.85 183.751 102.185 179.121 99.2383C173.649 95.8708 173.649 99.6592 179.121 108.92C185.856 120.706 217.005 195.211 215.742 196.474C214.9 197.315 205.219 185.108 193.854 169.534L173.228 141.331L171.544 95.8708C170.703 71.0359 170.703 50.8311 171.965 50.8311C172.807 50.8311 183.33 66.4056 195.117 85.3476Z" fill="#7FCC38"/>
<path d="M334.445 183.004L357.175 205.734L333.182 234.778C310.452 261.297 291.51 278.134 282.67 278.134C277.198 278.134 281.829 180.899 287.722 169.534C296.14 154.38 309.61 158.169 334.445 183.004Z" fill="#7FCC38"/>
<path d="M395.48 25.9961C401.373 28.9427 406.845 33.5729 408.108 36.5194C409.792 41.1497 401.794 42.4125 366.436 42.4125C329.394 42.4125 322.238 41.1497 322.238 36.0985C322.238 32.3101 326.447 27.6799 331.919 25.5752C345.389 20.1031 383.273 20.524 395.48 25.9961Z" fill="#7FCC38"/>
<path d="M368.541 6.63328C368.541 10.0007 366.857 12.9472 364.331 12.9472C362.227 12.9472 360.122 10.0007 360.122 6.63328C360.122 3.26584 362.227 0.319291 364.331 0.319291C366.857 0.319291 368.541 3.26584 368.541 6.63328Z" fill="#FFCB19"/>
<path d="M333.603 291.604C352.966 301.286 358.859 306.337 355.492 310.125C352.545 313.914 346.231 311.809 330.236 300.865C318.45 292.867 306.243 286.553 302.875 286.553C299.508 286.553 296.982 284.448 296.982 282.344C296.982 275.188 306.243 277.713 333.603 291.604Z" fill="#FFCB19"/>
<path d="M409.371 262.981C409.371 287.816 408.529 290.762 402.215 288.658C398.006 287.395 388.324 289.5 380.327 293.288C366.015 300.023 365.173 300.023 340.759 286.132C327.289 278.555 315.082 271.82 314.24 271.399C313.819 270.558 323.922 257.088 337.392 241.092L362.227 212.048L385.799 223.834L408.95 235.199L409.371 262.981Z" fill="#FFCB19"/>
<path d="M694.342 310.125C703.181 313.493 703.181 326.963 694.342 330.33C685.502 333.697 680.03 329.909 680.03 320.649C680.03 308.862 683.819 306.337 694.342 310.125Z" fill="#FFCB19"/>
<path fill-rule="evenodd" clip-rule="evenodd" d="M466.819 296.019C466.768 296.111 466.716 296.201 466.666 296.29C465.123 299.003 464.206 300.279 464.206 299.181C464.208 299.178 464.21 299.176 464.213 299.173C465.067 298.13 465.937 297.078 466.819 296.019Z" fill="#131313"/>
<path fill-rule="evenodd" clip-rule="evenodd" d="M464.213 299.173C465.067 298.13 465.937 297.078 466.819 296.019L466.666 296.29C465.123 299.003 464.206 300.279 464.206 299.181L464.213 299.173Z" fill="#131313"/>
<path d="M493.136 71.036C475.457 122.811 468.722 136.28 454.411 145.541C448.517 149.329 444.308 151.013 445.15 149.329C464.934 111.025 484.297 60.0918 475.878 68.5104C474.194 70.1941 465.776 86.6105 456.936 105.552C437.152 148.067 435.048 150.171 438.415 124.073C440.941 106.815 445.992 97.9757 471.248 66.8267C487.664 46.6219 502.397 30.2056 504.08 30.2056C505.764 29.7847 500.713 48.3057 493.136 71.036Z" fill="#7FCC38"/>
<path d="M225.423 36.0983C220.793 41.5704 221.635 44.096 228.791 52.0937C233.421 57.1449 245.207 77.7706 254.468 97.9753C263.728 118.601 272.568 135.017 273.831 135.017C278.04 135.017 270.884 112.708 257.835 84.5055C251.1 69.352 245.628 52.5147 246.049 47.0426C246.891 31.4681 234.684 25.1541 225.423 36.0983Z" fill="#FB462E"/>
<path d="M660.667 107.657C663.614 115.234 664.456 114.813 616.891 124.494C557.539 136.28 499.45 160.694 459.041 191.422L442.204 204.05L456.936 188.055C490.611 151.855 546.595 123.652 612.681 109.341C657.721 100.08 657.721 100.08 660.667 107.657Z" fill="#FB462E"/>
<path d="M651.828 179.637C644.251 183.004 637.937 187.634 637.937 189.739C637.937 195.211 637.095 195.211 660.246 187.213C671.191 183.425 680.03 178.795 680.03 176.69C680.03 171.218 667.823 172.481 651.828 179.637Z" fill="#FB462E"/>
<path d="M135.956 148.594C135.956 154.598 131.089 159.466 125.084 159.466C119.08 159.466 114.213 154.598 114.213 148.594C114.213 142.59 119.08 137.722 125.084 137.722C131.089 137.722 135.956 142.59 135.956 148.594Z" fill="#7FCC38"/>
<path d="M699.814 237.725C698.551 241.092 700.235 246.144 703.602 249.09C708.654 253.299 711.179 252.878 716.651 247.827C720.019 244.039 721.703 238.988 720.44 236.462C716.23 229.727 702.34 230.569 699.814 237.725Z" fill="#FB462E"/>
<path d="M440.099 281.081C440.099 283.186 443.888 288.658 448.518 292.867C453.148 297.076 456.936 298.76 456.936 296.235C456.936 294.13 453.148 288.658 448.518 284.448C443.888 280.239 440.099 278.555 440.099 281.081Z" fill="#131313"/>
<path d="M90.7253 307.179C90.7253 309.284 93.6719 312.23 97.4603 313.493C106.3 316.86 106.3 316.86 109.246 309.704C110.93 305.074 108.825 303.39 101.249 303.39C95.3556 303.39 90.7253 305.074 90.7253 307.179Z" fill="#FFCB19"/>
<path d="M69.679 319.807C66.7324 326.121 67.1534 329.488 72.2046 334.539C81.4651 343.8 90.4343 338.992 94.6436 330.153C98.8529 321.313 92.5617 319.807 90.3046 315.597C87.0334 309.496 74.7302 310.967 69.679 319.807ZM88.6209 328.646C87.3581 330.751 83.1488 332.856 79.7813 332.856C76.4139 332.856 73.8883 330.751 73.8883 328.646C73.8883 326.121 77.6767 324.437 82.7279 324.437C87.3581 324.437 89.8837 326.121 88.6209 328.646Z" fill="#FFCB19"/>
</svg>
