<svg width="721" height="516" viewBox="0 0 721 516" fill="none" xmlns="http://www.w3.org/2000/svg">
<path d="M345.774 478.495L360.268 464L374.763 478.495L360.268 492.989L345.774 478.495Z" fill="#131313"/>
<path fill-rule="evenodd" clip-rule="evenodd" d="M122 479.374C122 477.015 123.912 475.103 126.27 475.103H307.339C309.698 475.103 311.61 477.015 311.61 479.374C311.61 481.732 309.698 483.644 307.339 483.644H126.27C123.912 483.644 122 481.732 122 479.374Z" fill="#131313"/>
<path fill-rule="evenodd" clip-rule="evenodd" d="M408.977 479.374C408.977 477.015 410.889 475.103 413.248 475.103H594.316C596.675 475.103 598.587 477.015 598.587 479.374C598.587 481.732 596.675 483.644 594.316 483.644H413.248C410.889 483.644 408.977 481.732 408.977 479.374Z" fill="#131313"/>
<path d="M93.6976 394.656C90.2416 393.44 87.6176 392.672 85.8256 392.352C84.0336 391.968 82.0496 391.776 79.8736 391.776C75.9696 391.776 72.7056 393.6 70.0816 397.248C67.4576 400.832 66.1456 405.6 66.1456 411.552C66.1456 417.696 67.5216 422.464 70.2736 425.856C73.0256 429.248 76.4496 430.944 80.5456 430.944C82.9136 430.944 85.1536 430.624 87.2656 429.984C89.3776 429.28 91.2656 428.416 92.9296 427.392L99.5536 440.448C96.9936 441.984 93.9216 443.168 90.3376 444C86.8176 444.832 83.3936 445.248 80.0656 445.248C69.4416 445.248 61.4416 442.112 56.0656 435.84C50.7536 429.568 48.0976 421.504 48.0976 411.648C48.0976 401.6 50.9456 393.408 56.6416 387.072C62.3376 380.672 70.0176 377.472 79.6816 377.472C82.9456 377.472 86.3056 377.952 89.7616 378.912C93.2816 379.808 96.3216 381.12 98.8816 382.848L93.6976 394.656ZM136.364 399.648L130.124 417.408H142.892L136.364 399.648ZM145.388 378.72L169.772 442.272L152.588 444L147.884 431.136H125.324L120.812 444H103.436L127.916 378.72H145.388ZM194.246 418.272C189.894 416.096 185.542 413.28 181.19 409.824C176.838 406.304 174.662 401.76 174.662 396.192C174.726 390.816 176.934 386.368 181.286 382.848C185.638 379.264 191.526 377.472 198.95 377.472C202.214 377.472 205.574 377.952 209.03 378.912C212.55 379.808 215.59 381.12 218.15 382.848L212.966 394.656C209.51 393.44 206.886 392.672 205.094 392.352C203.302 391.968 201.318 391.776 199.142 391.776C197.158 391.776 195.59 392.256 194.438 393.216C193.286 394.112 192.71 395.168 192.71 396.384C192.71 397.792 193.67 399.04 195.59 400.128C197.574 401.152 199.91 402.368 202.598 403.776C207.206 406.144 211.654 409.12 215.942 412.704C220.23 416.288 222.374 420.736 222.374 426.048C222.374 431.552 220.038 436.128 215.366 439.776C210.758 443.424 204.422 445.248 196.358 445.248C193.03 445.248 189.254 444.768 185.03 443.808C180.87 442.784 177.51 441.504 174.95 439.968L180.71 426.816C182.374 427.84 184.71 428.8 187.718 429.696C190.79 430.528 193.51 430.944 195.878 430.944C198.63 430.944 200.71 430.4 202.118 429.312C203.59 428.224 204.326 427.072 204.326 425.856C204.326 424.704 203.27 423.456 201.158 422.112C199.046 420.768 196.742 419.488 194.246 418.272ZM258.802 399.648L252.562 417.408H265.33L258.802 399.648ZM267.826 378.72L292.21 442.272L275.026 444L270.322 431.136H247.762L243.25 444H225.874L250.354 378.72H267.826ZM299.884 444V378.72H321.676C328.844 378.72 335.116 380.192 340.492 383.136C345.868 386.08 348.556 390.88 348.556 397.536V398.016C348.492 400.32 347.98 402.432 347.02 404.352C346.124 406.208 344.94 407.872 343.468 409.344C346.028 411.136 348.108 413.344 349.708 415.968C351.372 418.528 352.204 421.376 352.204 424.512C352.204 432 349.356 437.12 343.66 439.872C337.964 442.624 331.596 444 324.556 444H299.884ZM321.1 392.448H317.356V403.488H321.292C323.98 403.488 326.188 403.072 327.916 402.24C329.644 401.408 330.508 400.128 330.508 398.4C330.508 396.416 329.676 394.944 328.012 393.984C326.348 392.96 324.044 392.448 321.1 392.448ZM324.748 417.216H317.356V430.272H324.94C327.628 430.272 329.836 429.76 331.564 428.736C333.292 427.712 334.156 426.176 334.156 424.128C334.156 421.952 333.324 420.256 331.66 419.04C329.996 417.824 327.692 417.216 324.748 417.216ZM408.607 444H361.759V378.72H379.231V430.272H406.975L408.607 444ZM443.489 399.648L437.249 417.408H450.017L443.489 399.648ZM452.513 378.72L476.897 442.272L459.713 444L455.009 431.136H432.449L427.937 444H410.561L435.041 378.72H452.513ZM484.571 444V378.72H500.795L525.947 414.144V378.72H543.419V444H527.099L502.043 409.632V444H484.571ZM599.573 394.656C596.117 393.44 593.493 392.672 591.701 392.352C589.909 391.968 587.925 391.776 585.749 391.776C581.845 391.776 578.581 393.6 575.957 397.248C573.333 400.832 572.021 405.6 572.021 411.552C572.021 417.696 573.397 422.464 576.149 425.856C578.901 429.248 582.325 430.944 586.421 430.944C588.789 430.944 591.029 430.624 593.141 429.984C595.253 429.28 597.141 428.416 598.805 427.392L605.429 440.448C602.869 441.984 599.797 443.168 596.213 444C592.693 444.832 589.269 445.248 585.941 445.248C575.317 445.248 567.317 442.112 561.941 435.84C556.629 429.568 553.973 421.504 553.973 411.648C553.973 401.6 556.821 393.408 562.517 387.072C568.213 380.672 575.893 377.472 585.557 377.472C588.821 377.472 592.181 377.952 595.637 378.912C599.157 379.808 602.197 381.12 604.757 382.848L599.573 394.656ZM642.239 399.648L635.999 417.408H648.767L642.239 399.648ZM651.263 378.72L675.647 442.272L658.463 444L653.759 431.136H631.199L626.687 444H609.311L633.791 378.72H651.263Z" fill="#131313"/>
<path fill-rule="evenodd" clip-rule="evenodd" d="M2.20494 277.919C8.51188 255.214 25.7509 239.236 66.1154 219.895L101.014 203.076L108.582 219.895C118.673 241.759 114.048 255.214 84.1953 290.112C60.2289 318.704 42.5694 332.579 30.7964 332.579C14.8189 332.579 51.7845 293.903 60.4723 284.129C73.2253 268.998 80.3659 260.081 93.0514 241.777C55.5296 264.474 37.241 280.173 7.41607 311.2C-0.152258 313.723 -1.99969 293.896 2.20494 277.919Z" fill="#7FCC38"/>
<path d="M7.41607 311.2C15.8253 308.257 89.7935 245.035 93.0514 241.777C55.5296 264.474 37.241 280.173 7.41607 311.2Z" fill="#6DAD31"/>
<path d="M180.998 198.234C173.009 201.598 161.657 206.223 156.191 208.746C156.191 208.746 147.725 211.764 146.639 212.85C145.553 213.936 158.293 220.939 158.293 220.939C165.021 225.564 175.532 232.292 182.26 235.655C192.771 241.542 193.612 241.121 193.612 233.133C193.612 227.667 197.679 223.504 197.679 223.504C191.624 220.669 172.589 217.509 172.589 217.194C172.589 216.879 178.132 217.194 185.733 218.28C193.741 219.424 199.851 221.538 202.023 220.452C204.195 219.366 202.513 211.725 201.182 204.686C199.851 197.646 200.937 193.303 199.078 191.507C197.219 189.711 188.987 194.87 180.998 198.234Z" fill="#7FCC38"/>
<path d="M356.331 5.04555C353.388 7.98879 351.286 13.4548 351.286 17.239C351.286 21.4436 346.661 25.2278 338.672 26.4892C331.945 28.1711 322.274 33.2166 317.649 37.8417C310.081 45.41 309.24 51.717 309.24 105.116V163.981H298.728C284.432 163.981 275.603 179.117 272.659 208.129L270.136 231.675L262.568 210.652C244.488 158.935 174.691 38.2622 164.6 41.2054C162.498 41.6259 161.236 67.2741 161.657 97.968L162.498 153.469L177.214 174.913C185.203 187.106 195.294 199.72 199.919 203.925C207.908 211.073 207.908 211.073 199.499 219.902C190.248 229.994 183.101 252.278 183.101 272.46C183.101 281.711 180.998 286.756 175.953 288.438C155.35 294.324 129.281 311.143 112.883 327.961C102.792 338.053 94.8032 348.144 94.8032 349.826C94.8032 351.928 231.033 353.189 397.537 353.189H700.271L706.998 342.678C713.305 333.007 713.305 331.325 706.998 321.655C694.384 302.313 662.849 312.825 668.315 334.689C670.838 343.519 669.577 344.78 657.804 344.78C646.451 344.78 645.19 343.939 649.815 338.473C654.02 333.428 648.974 325.859 621.223 293.063C575.393 239.664 579.177 242.187 550.165 248.073C536.71 251.017 519.892 256.903 512.323 261.108C496.346 270.778 443.788 331.746 443.788 340.575C443.367 343.939 439.583 339.314 434.958 330.064C427.39 314.507 427.39 312.404 433.276 293.904C453.459 233.778 496.346 200.561 553.949 200.982C587.166 200.982 610.712 211.914 628.371 235.46L639.303 250.176L626.689 240.085C588.848 211.073 536.29 211.073 500.13 240.926C483.732 254.801 463.663 300.631 463.663 311.143C463.663 314.507 472.288 295.562 481.117 281.266C500.038 252.254 516.528 234.198 545.54 226.63C571.609 220.323 588.427 224.107 616.598 241.766C657.804 267.835 660.747 255.642 622.905 215.277C597.678 188.368 543.858 182.061 500.971 200.982C464.391 217.38 422.765 268.676 422.765 297.688C422.765 302.734 421.503 306.938 419.821 306.938C417.719 306.938 416.878 248.494 417.719 176.595C418.56 50.0352 418.56 46.251 410.151 37.8417C405.526 33.2166 395.855 28.1711 389.128 26.4892C381.139 25.2278 376.514 21.4436 376.514 17.239C376.514 10.0911 368.945 2.77457e-06 363.9 2.77457e-06C362.638 2.77457e-06 359.275 2.1023 356.331 5.04555ZM368.104 18.9209C368.104 22.2846 366.423 25.2278 363.9 25.2278C361.798 25.2278 359.695 22.2846 359.695 18.9209C359.695 15.5571 361.798 12.6139 363.9 12.6139C366.423 12.6139 368.104 15.5571 368.104 18.9209ZM395.014 38.2622C400.901 41.2054 406.367 45.8305 407.628 48.7738C409.31 53.3988 401.321 54.6603 366.002 54.6603C329.001 54.6603 321.853 53.3988 321.853 48.3533C321.853 44.5691 326.058 39.944 331.524 37.8417C344.979 32.3757 382.821 32.7961 395.014 38.2622ZM194.874 97.5475C206.226 116.889 221.783 144.639 229.352 159.776C246.17 192.993 272.659 261.108 270.136 263.631C267.193 266.153 235.658 227.05 236.499 222.425C237.34 220.323 236.079 218.641 233.556 218.641C231.454 218.641 231.033 215.698 232.295 211.493C234.397 206.448 233.556 205.607 229.352 208.129C225.567 210.652 224.726 209.811 227.249 206.027C228.931 203.084 228.09 199.72 225.567 197.618C222.624 195.936 220.101 192.152 219.681 188.788C218.419 179.958 183.521 114.366 178.896 111.423C173.43 108.059 173.43 111.843 178.896 121.093C185.623 132.866 216.738 207.288 215.476 208.55C214.635 209.391 204.965 197.197 193.612 181.64L173.009 153.469L171.328 108.059C170.487 83.2518 170.487 63.0695 171.748 63.0695C172.589 63.0695 183.101 78.6267 194.874 97.5475ZM389.128 145.06C389.128 197.197 387.446 227.05 384.923 227.05C382.4 227.05 366.423 214.436 349.604 198.459L318.069 170.288V116.468L317.649 63.0695H353.388H389.128V145.06ZM410.151 151.367C410.571 228.732 409.73 239.244 403.844 237.141C394.594 233.357 394.173 63.0695 403.423 63.0695C408.469 63.0695 409.73 77.7857 410.151 151.367ZM334.047 195.095L356.752 217.8L332.786 246.812C310.081 273.301 291.16 290.12 282.33 290.12C276.864 290.12 281.489 192.993 287.375 181.64C295.785 166.504 309.24 170.288 334.047 195.095ZM244.488 250.596C260.466 268.256 274.341 284.654 275.182 287.177C276.023 289.699 270.977 290.54 260.466 288.858C251.216 287.177 231.874 285.915 217.158 285.915H190.248L192.771 264.892C195.294 245.13 206.647 218.641 212.953 218.641C214.215 218.641 228.511 232.937 244.488 250.596ZM408.889 274.983C408.889 299.79 408.048 302.734 401.742 300.631C397.537 299.37 387.866 301.472 379.877 305.256C365.582 311.984 364.741 311.984 340.354 298.109C326.899 290.54 314.706 283.813 313.865 283.392C313.444 282.551 323.535 269.097 336.99 253.119L361.798 224.107L385.343 235.88L408.469 247.233L408.889 274.983ZM537.131 286.756C520.733 303.575 502.653 322.916 497.187 329.643C488.777 338.894 482.471 342.257 466.913 343.519L446.731 345.2L463.97 325.018C495.084 288.438 522.415 264.051 536.71 260.687C567.404 253.539 567.825 255.642 537.131 286.756ZM573.711 276.665C523.676 338.473 517.369 344.78 505.176 344.78C492.982 344.78 492.982 344.36 517.789 318.291C531.665 303.995 550.165 284.233 559.415 274.142C577.916 253.96 590.53 255.642 573.711 276.665ZM615.757 301.052C650.235 341.837 648.974 343.098 579.177 341.416L527.46 340.155L545.54 318.291C555.631 306.097 567.825 291.802 572.87 285.915C578.336 280.029 582.541 274.142 582.541 272.46C582.541 264.051 590.95 271.619 615.757 301.052ZM333.206 303.575C352.547 313.245 358.434 318.291 355.07 322.075C352.127 325.859 345.82 323.757 329.842 312.825C318.069 304.836 305.876 298.529 302.512 298.529C299.148 298.529 296.626 296.427 296.626 294.324C296.626 287.177 305.876 289.699 333.206 303.575ZM258.784 301.893C271.818 308.2 292.421 332.166 292.421 340.575C292.421 342.678 251.636 343.519 201.601 343.519L110.781 342.678L130.122 325.018C140.634 315.348 157.452 304.836 167.543 301.472C192.771 292.222 240.284 292.643 258.784 301.893ZM307.558 311.143C321.433 317.87 336.99 327.961 342.036 333.428L351.286 343.098L328.16 343.519C305.035 343.939 304.614 343.519 296.626 327.961C292.001 319.132 284.012 308.62 278.966 305.256C262.568 293.904 280.228 297.268 307.558 311.143ZM410.992 311.984C418.14 318.291 431.174 336.791 431.174 340.996C431.174 346.462 358.434 343.098 356.752 337.632C354.65 331.746 387.446 306.938 397.537 306.938C401.321 306.938 407.208 309.461 410.992 311.984ZM693.543 322.075C702.373 325.439 702.373 338.894 693.543 342.257C684.713 345.621 679.247 341.837 679.247 332.587C679.247 320.814 683.032 318.291 693.543 322.075Z" fill="#131313"/>
<path d="M258.784 301.893C271.818 308.2 292.421 332.166 292.421 340.575C292.421 342.678 251.636 343.519 201.601 343.519L110.781 342.678L130.122 325.018C140.634 315.348 157.452 304.836 167.543 301.472C192.771 292.222 240.284 292.643 258.784 301.893Z" fill="#FFCB19"/>
<path d="M244.488 250.596C260.466 268.256 274.341 284.654 275.182 287.177C276.023 289.699 270.977 290.54 260.466 288.858C251.216 287.177 231.874 285.915 217.158 285.915H190.248L192.771 264.892C195.294 245.13 206.647 218.641 212.953 218.641C214.215 218.641 228.511 232.937 244.488 250.596Z" fill="#7FCC38"/>
<path d="M307.558 311.143C321.433 317.87 336.99 327.961 342.036 333.428L351.286 343.098L328.16 343.519C305.035 343.939 304.614 343.519 296.626 327.961C292.001 319.132 284.012 308.62 278.966 305.256C262.568 293.904 280.228 297.268 307.558 311.143Z" fill="#FB462E"/>
<path d="M410.992 311.984C418.14 318.291 431.174 336.791 431.174 340.996C431.174 346.462 358.434 343.098 356.752 337.632C354.65 331.746 387.446 306.938 397.537 306.938C401.321 306.938 407.208 309.461 410.992 311.984Z" fill="#7FCC38"/>
<path d="M615.757 301.052C650.235 341.837 648.974 343.098 579.177 341.416L527.46 340.155L545.54 318.291C555.631 306.097 567.825 291.802 572.87 285.915C578.336 280.029 582.541 274.142 582.541 272.46C582.541 264.051 590.95 271.619 615.757 301.052Z" fill="#FB462E"/>
<path d="M573.711 276.665C523.676 338.473 517.369 344.78 505.176 344.78C492.982 344.78 492.982 344.36 517.789 318.291C531.665 303.995 550.165 284.233 559.415 274.142C577.916 253.96 590.53 255.642 573.711 276.665Z" fill="#FFCB19"/>
<path d="M537.131 286.756C520.733 303.575 502.653 322.916 497.187 329.643C488.777 338.894 482.471 342.257 466.913 343.519L446.731 345.2L463.97 325.018C495.084 288.438 522.415 264.051 536.71 260.687C567.404 253.539 567.825 255.642 537.131 286.756Z" fill="#FB462E"/>
<path d="M463.663 311.143C452.375 324.918 443.788 337.006 443.788 340.575C443.367 343.939 439.583 339.314 434.958 330.064C427.39 314.507 427.39 312.404 433.276 293.904C453.459 233.778 496.346 200.561 553.949 200.982C587.166 200.982 610.712 211.914 628.371 235.46L639.303 250.176L626.689 240.085C588.848 211.073 536.29 211.073 500.13 240.926C483.732 254.801 463.663 300.631 463.663 311.143Z" fill="#7FCC38"/>
<path d="M389.128 145.06C389.128 197.197 387.446 227.05 384.923 227.05C382.4 227.05 366.423 214.436 349.604 198.459L318.069 170.288V116.468L317.649 63.0695H353.388H389.128V145.06Z" fill="#FFCB19"/>
<path d="M410.151 151.367C410.571 228.732 409.73 239.244 403.844 237.141C394.594 233.357 394.173 63.0695 403.423 63.0695C408.469 63.0695 409.73 77.7857 410.151 151.367Z" fill="#FB462E"/>
<path d="M194.874 97.5475C206.226 116.889 221.783 144.639 229.352 159.776C246.17 192.993 272.659 261.108 270.136 263.631C267.193 266.153 235.658 227.05 236.499 222.425C237.34 220.323 236.079 218.641 233.556 218.641C231.454 218.641 231.033 215.698 232.295 211.493C234.397 206.448 233.556 205.607 229.352 208.129C225.567 210.652 224.726 209.811 227.249 206.027C228.931 203.084 228.09 199.72 225.567 197.618C222.624 195.936 220.101 192.152 219.681 188.788C218.419 179.958 183.521 114.366 178.896 111.423C173.43 108.059 173.43 111.843 178.896 121.093C185.623 132.866 216.738 207.288 215.476 208.55C214.635 209.391 204.965 197.197 193.612 181.64L173.009 153.469L171.328 108.059C170.487 83.2518 170.487 63.0695 171.748 63.0695C172.589 63.0695 183.101 78.6267 194.874 97.5475Z" fill="#7FCC38"/>
<path d="M334.047 195.095L356.752 217.8L332.786 246.812C310.081 273.301 291.16 290.12 282.33 290.12C276.864 290.12 281.489 192.993 287.375 181.64C295.785 166.504 309.24 170.288 334.047 195.095Z" fill="#7FCC38"/>
<path d="M395.014 38.2622C400.901 41.2054 406.367 45.8305 407.628 48.7738C409.31 53.3988 401.321 54.6603 366.002 54.6603C329.001 54.6603 321.853 53.3988 321.853 48.3533C321.853 44.5691 326.058 39.944 331.524 37.8417C344.979 32.3757 382.821 32.7961 395.014 38.2622Z" fill="#7FCC38"/>
<path d="M368.104 18.9209C368.104 22.2846 366.423 25.2278 363.9 25.2278C361.798 25.2278 359.695 22.2846 359.695 18.9209C359.695 15.5571 361.798 12.6139 363.9 12.6139C366.423 12.6139 368.104 15.5571 368.104 18.9209Z" fill="#FFCB19"/>
<path d="M333.206 303.575C352.547 313.245 358.434 318.291 355.07 322.075C352.127 325.859 345.82 323.757 329.842 312.825C318.069 304.836 305.876 298.529 302.512 298.529C299.148 298.529 296.626 296.427 296.626 294.324C296.626 287.177 305.876 289.699 333.206 303.575Z" fill="#FFCB19"/>
<path d="M408.889 274.983C408.889 299.79 408.048 302.734 401.742 300.631C397.537 299.37 387.866 301.472 379.877 305.256C365.582 311.984 364.741 311.984 340.354 298.109C326.899 290.54 314.706 283.813 313.865 283.392C313.444 282.551 323.535 269.097 336.99 253.119L361.798 224.107L385.343 235.88L408.469 247.233L408.889 274.983Z" fill="#FFCB19"/>
<path d="M693.543 322.075C702.373 325.439 702.373 338.894 693.543 342.257C684.713 345.621 679.247 341.837 679.247 332.587C679.247 320.814 683.032 318.291 693.543 322.075Z" fill="#FFCB19"/>
<path d="M475.743 58.865C428.231 112.684 429.072 111.002 428.651 148.003C428.231 166.083 429.492 180.799 431.174 180.799C432.435 180.799 442.526 175.333 453.458 168.185C477.004 153.469 488.357 132.446 506.016 71.4789C524.937 7.98891 521.994 6.72753 475.743 58.865ZM492.562 83.2519C474.902 134.969 468.175 148.424 453.879 157.674C447.992 161.458 443.788 163.14 444.629 161.458C464.39 123.196 483.732 72.3198 475.323 80.7291C473.641 82.4109 465.231 98.809 456.402 117.73C436.64 160.197 434.538 162.299 437.901 136.23C440.424 118.991 445.47 110.162 470.697 79.0472C487.095 58.865 501.812 42.4669 503.494 42.4669C505.175 42.0464 500.13 60.5468 492.562 83.2519Z" fill="#131313"/>
<path d="M492.562 83.2519C474.902 134.969 468.175 148.424 453.879 157.674C447.992 161.458 443.788 163.14 444.629 161.458C464.39 123.196 483.732 72.3198 475.323 80.7291C473.641 82.4109 465.231 98.809 456.402 117.73C436.64 160.197 434.538 162.299 437.901 136.23C440.424 118.991 445.47 110.162 470.697 79.0472C487.095 58.865 501.812 42.4669 503.494 42.4669C505.175 42.0464 500.13 60.5468 492.562 83.2519Z" fill="#7FCC38"/>
<path d="M225.147 48.3531C220.522 53.8192 221.363 56.3419 228.511 64.3308C233.136 69.3763 244.909 89.979 254.159 110.161C263.409 130.764 272.239 147.162 273.5 147.162C277.705 147.162 270.557 124.877 257.523 96.7064C250.795 81.5698 245.329 64.7512 245.75 59.2852C246.591 43.728 234.397 37.4211 225.147 48.3531Z" fill="#131313"/>
<path d="M599.36 113.945C546.381 125.718 492.562 153.049 459.345 185.845C440.004 204.345 431.174 216.539 429.492 226.209L426.969 240.085L453.038 219.061C496.766 183.742 570.348 153.049 638.883 142.117C655.281 139.594 670.418 135.81 672.1 134.128C674.202 132.446 672.52 125.298 669.156 118.15C660.747 102.593 652.338 101.752 599.36 113.945ZM659.906 119.832C662.85 127.4 663.69 126.98 616.178 136.65C556.893 148.423 498.869 172.81 458.504 203.504L441.686 216.118L456.402 200.14C490.039 163.981 545.961 135.81 611.973 121.514C656.963 112.264 656.963 112.264 659.906 119.832Z" fill="#131313"/>
<path d="M659.906 119.832C662.85 127.4 663.69 126.98 616.178 136.65C556.893 148.423 498.869 172.81 458.504 203.504L441.686 216.118L456.402 200.14C490.039 163.981 545.961 135.81 611.973 121.514C656.963 112.264 656.963 112.264 659.906 119.832Z" fill="#FB462E"/>
<path d="M651.076 191.732C643.508 195.095 637.201 199.72 637.201 201.823C637.201 207.289 636.36 207.289 659.486 199.3C670.418 195.516 679.247 190.891 679.247 188.788C679.247 183.322 667.054 184.584 651.076 191.732Z" fill="#FB462E"/>
<path d="M135.779 160.723C135.779 166.721 130.917 171.583 124.919 171.583C118.922 171.583 114.06 166.721 114.06 160.723C114.06 154.726 118.922 149.864 124.919 149.864C130.917 149.864 135.779 154.726 135.779 160.723Z" fill="#7FCC38"/>
<path d="M699.009 249.755C697.748 253.119 699.43 258.165 702.793 261.108C707.839 265.312 710.362 264.892 715.828 259.846C719.192 256.062 720.873 251.017 719.612 248.494C715.407 241.767 701.532 242.607 699.009 249.755Z" fill="#FB462E"/>
<path d="M439.583 293.063C439.583 295.165 443.368 300.631 447.993 304.836C452.618 309.041 456.402 310.723 456.402 308.2C456.402 306.098 452.618 300.631 447.993 296.427C443.368 292.222 439.583 290.54 439.583 293.063Z" fill="#131313"/>
<path d="M90.5986 319.132C90.5986 321.234 93.5419 324.177 97.326 325.439C106.156 328.803 106.156 328.803 109.099 321.655C110.781 317.03 108.679 315.348 101.11 315.348C95.2237 315.348 90.5986 317.03 90.5986 319.132Z" fill="#FFCB19"/>
<path d="M69.5755 331.746C66.6322 338.053 67.0527 341.416 72.0983 346.462C81.3485 355.712 90.3077 350.91 94.5124 342.08C98.717 333.251 92.4327 331.746 90.1782 327.541C86.9106 321.447 74.621 322.916 69.5755 331.746ZM88.4963 340.575C87.2349 342.678 83.0303 344.78 79.6666 344.78C76.3029 344.78 73.7801 342.678 73.7801 340.575C73.7801 338.053 77.5643 336.371 82.6099 336.371C87.2349 336.371 89.7577 338.053 88.4963 340.575Z" fill="#FFCB19"/>
</svg>
