<svg width="703" height="545" viewBox="0 0 703 545" fill="none" xmlns="http://www.w3.org/2000/svg">
<path d="M337.831 530.811L351.491 517.151L365.151 530.811L351.491 544.471L337.831 530.811Z" fill="#1E1E1E"/>
<path fill-rule="evenodd" clip-rule="evenodd" d="M126.943 531.639C126.943 529.417 128.745 527.615 130.968 527.615H301.61C303.833 527.615 305.634 529.417 305.634 531.639C305.634 533.862 303.833 535.664 301.61 535.664H130.968C128.745 535.664 126.943 533.862 126.943 531.639Z" fill="#1E1E1E"/>
<path fill-rule="evenodd" clip-rule="evenodd" d="M397.395 531.639C397.395 529.417 399.197 527.615 401.419 527.615H572.061C574.284 527.615 576.086 529.417 576.086 531.639C576.086 533.862 574.284 535.664 572.061 535.664H401.419C399.197 535.664 397.395 533.862 397.395 531.639Z" fill="#1E1E1E"/>
<path d="M128.326 464.503C126.278 463.863 124.656 463.415 123.462 463.159C122.267 462.86 120.816 462.711 119.11 462.711C115.654 462.711 112.987 464.119 111.11 466.935C109.232 469.751 108.294 473.612 108.294 478.519C108.294 482.743 109.083 486.391 110.662 489.463C112.24 492.535 114.886 494.071 118.598 494.071C120.432 494.071 122.139 493.879 123.718 493.495C125.339 493.111 126.811 492.641 128.134 492.087L131.27 498.231C129.606 499.084 127.6 499.767 125.254 500.279C122.907 500.791 120.838 501.047 119.046 501.047C112.262 501.047 107.334 498.871 104.262 494.519C101.19 490.167 99.6537 484.855 99.6537 478.583C99.6537 471.884 101.339 466.401 104.71 462.135C108.123 457.868 113.008 455.735 119.366 455.735C120.646 455.735 122.416 455.948 124.678 456.375C126.939 456.801 129.008 457.527 130.886 458.551L128.326 464.503ZM144.119 490.871C144.119 491.767 144.482 492.577 145.207 493.303C145.933 493.985 146.893 494.327 148.087 494.327C149.239 494.327 150.391 494.071 151.543 493.559C152.738 493.047 153.869 492.279 154.935 491.255V486.519H148.663C147.213 486.519 146.082 486.967 145.271 487.863C144.503 488.759 144.119 489.761 144.119 490.871ZM148.215 500.919C144.418 500.919 141.602 500.001 139.767 498.167C137.933 496.289 137.015 493.857 137.015 490.871C137.015 487.671 138.103 485.217 140.279 483.511C142.455 481.804 145.293 480.951 148.791 480.951H154.871C154.829 479.372 154.359 478.156 153.463 477.303C152.61 476.407 151.415 475.959 149.879 475.959C148.429 475.959 146.85 476.172 145.143 476.599C143.437 476.983 142.007 477.452 140.855 478.007L138.615 471.095C139.81 470.284 141.623 469.623 144.055 469.111C146.53 468.556 148.429 468.279 149.751 468.279C153.463 468.279 156.642 469.367 159.287 471.543C161.933 473.676 163.255 476.407 163.255 479.735V500.151H158.967L156.919 497.527C155.767 498.423 154.402 499.212 152.823 499.895C151.287 500.577 149.751 500.919 148.215 500.919ZM187.935 469.111L189.599 475.767C188.191 475.767 186.549 476.172 184.671 476.983C182.837 477.793 181.023 478.988 179.231 480.567V500.151H170.911V469.111H175.263L178.015 473.655C179.295 472.545 180.853 471.521 182.687 470.583C184.522 469.601 186.271 469.111 187.935 469.111ZM198.009 455.351C199.331 455.351 200.441 455.799 201.337 456.695C202.275 457.591 202.745 458.7 202.745 460.023C202.745 461.345 202.275 462.455 201.337 463.351C200.441 464.247 199.331 464.695 198.009 464.695C196.729 464.695 195.641 464.247 194.745 463.351C193.849 462.455 193.401 461.345 193.401 460.023C193.401 458.7 193.849 457.591 194.745 456.695C195.641 455.799 196.729 455.351 198.009 455.351ZM202.169 469.111V500.151H193.849V469.111H202.169ZM218.928 454.967V470.071C220.165 469.388 221.466 468.855 222.832 468.471C224.24 468.087 225.498 467.895 226.608 467.895C231.173 467.895 234.672 469.473 237.104 472.631C239.536 475.788 240.752 479.713 240.752 484.407C240.752 489.1 239.493 493.025 236.976 496.183C234.501 499.34 231.045 500.919 226.608 500.919C225.157 500.919 223.536 500.62 221.744 500.023C219.952 499.425 218.352 498.593 216.944 497.527L214.896 500.151H210.672V455.671L218.928 454.967ZM224.432 493.815C227.29 493.815 229.296 492.791 230.448 490.743C231.6 488.652 232.176 486.54 232.176 484.407C232.176 481.975 231.664 479.799 230.64 477.879C229.616 475.959 227.546 474.999 224.432 474.999C223.536 474.999 222.597 475.169 221.616 475.511C220.677 475.809 219.781 476.236 218.928 476.791V492.023C219.781 492.535 220.677 492.961 221.616 493.303C222.597 493.644 223.536 493.815 224.432 493.815ZM256.115 454.967V470.071C257.353 469.388 258.654 468.855 260.019 468.471C261.427 468.087 262.686 467.895 263.795 467.895C268.361 467.895 271.859 469.473 274.291 472.631C276.723 475.788 277.939 479.713 277.939 484.407C277.939 489.1 276.681 493.025 274.163 496.183C271.689 499.34 268.233 500.919 263.795 500.919C262.345 500.919 260.723 500.62 258.931 500.023C257.139 499.425 255.539 498.593 254.131 497.527L252.083 500.151H247.859V455.671L256.115 454.967ZM261.619 493.815C264.478 493.815 266.483 492.791 267.635 490.743C268.787 488.652 269.363 486.54 269.363 484.407C269.363 481.975 268.851 479.799 267.827 477.879C266.803 475.959 264.734 474.999 261.619 474.999C260.723 474.999 259.785 475.169 258.803 475.511C257.865 475.809 256.969 476.236 256.115 476.791V492.023C256.969 492.535 257.865 492.961 258.803 493.303C259.785 493.644 260.723 493.815 261.619 493.815ZM300.663 500.919C295.287 500.919 291.041 499.447 287.927 496.503C284.855 493.559 283.319 489.612 283.319 484.663C283.319 479.713 284.705 475.745 287.479 472.759C290.295 469.772 294.113 468.279 298.935 468.279C303.799 468.279 307.361 469.9 309.623 473.143C311.927 476.343 313.079 480.14 313.079 484.535V487.095H292.151C292.535 489.143 293.473 490.785 294.967 492.023C296.46 493.217 298.423 493.815 300.855 493.815C302.263 493.815 303.521 493.644 304.631 493.303C305.783 492.919 307.105 492.385 308.599 491.703L311.031 497.719C309.58 498.828 307.809 499.639 305.719 500.151C303.671 500.663 301.985 500.919 300.663 500.919ZM305.207 481.527C304.78 479.436 304.012 477.9 302.903 476.919C301.793 475.895 300.407 475.383 298.743 475.383C297.036 475.383 295.607 475.916 294.455 476.983C293.303 478.007 292.556 479.521 292.215 481.527H305.207ZM325.682 490.871C325.682 491.767 326.044 492.577 326.77 493.303C327.495 493.985 328.455 494.327 329.65 494.327C330.802 494.327 331.954 494.071 333.106 493.559C334.3 493.047 335.431 492.279 336.498 491.255V486.519H330.226C328.775 486.519 327.644 486.967 326.834 487.863C326.066 488.759 325.682 489.761 325.682 490.871ZM329.778 500.919C325.98 500.919 323.164 500.001 321.33 498.167C319.495 496.289 318.578 493.857 318.578 490.871C318.578 487.671 319.666 485.217 321.842 483.511C324.018 481.804 326.855 480.951 330.354 480.951H336.434C336.391 479.372 335.922 478.156 335.026 477.303C334.172 476.407 332.978 475.959 331.442 475.959C329.991 475.959 328.412 476.172 326.706 476.599C324.999 476.983 323.57 477.452 322.418 478.007L320.178 471.095C321.372 470.284 323.186 469.623 325.618 469.111C328.092 468.556 329.991 468.279 331.314 468.279C335.026 468.279 338.204 469.367 340.85 471.543C343.495 473.676 344.818 476.407 344.818 479.735V500.151H340.53L338.482 497.527C337.33 498.423 335.964 499.212 334.386 499.895C332.85 500.577 331.314 500.919 329.778 500.919ZM359.322 472.439C360.73 471.031 362.479 469.921 364.57 469.111C366.703 468.3 368.602 467.895 370.266 467.895C374.49 467.895 377.476 469.132 379.226 471.607C381.018 474.081 381.914 477.111 381.914 480.695V500.151H373.594V481.079C373.594 479.116 373.124 477.623 372.186 476.599C371.247 475.532 369.882 474.999 368.09 474.999C366.895 474.999 365.636 475.319 364.314 475.959C363.034 476.556 361.86 477.26 360.794 478.071V500.151H352.474V469.111H356.826L359.322 472.439ZM433.076 464.503C431.028 463.863 429.406 463.415 428.212 463.159C427.017 462.86 425.566 462.711 423.86 462.711C420.404 462.711 417.737 464.119 415.86 466.935C413.982 469.751 413.044 473.612 413.044 478.519C413.044 482.743 413.833 486.391 415.412 489.463C416.99 492.535 419.636 494.071 423.348 494.071C425.182 494.071 426.889 493.879 428.468 493.495C430.089 493.111 431.561 492.641 432.884 492.087L436.02 498.231C434.356 499.084 432.35 499.767 430.004 500.279C427.657 500.791 425.588 501.047 423.796 501.047C417.012 501.047 412.084 498.871 409.012 494.519C405.94 490.167 404.404 484.855 404.404 478.583C404.404 471.884 406.089 466.401 409.46 462.135C412.873 457.868 417.758 455.735 424.116 455.735C425.396 455.735 427.166 455.948 429.428 456.375C431.689 456.801 433.758 457.527 435.636 458.551L433.076 464.503ZM464.741 497.079C463.333 498.401 461.605 499.447 459.557 500.215C457.509 501.025 455.653 501.431 453.989 501.431C449.765 501.431 446.757 500.193 444.965 497.719C443.216 495.201 442.341 492.172 442.341 488.631V469.111H450.725V488.247C450.725 490.209 451.195 491.724 452.133 492.791C453.072 493.815 454.437 494.327 456.229 494.327C457.339 494.327 458.512 494.049 459.749 493.495C460.987 492.94 462.117 492.3 463.141 491.575V469.111H471.461V500.151H467.109L464.741 497.079ZM483.634 455.351C484.956 455.351 486.066 455.799 486.962 456.695C487.9 457.591 488.37 458.7 488.37 460.023C488.37 461.345 487.9 462.455 486.962 463.351C486.066 464.247 484.956 464.695 483.634 464.695C482.354 464.695 481.266 464.247 480.37 463.351C479.474 462.455 479.026 461.345 479.026 460.023C479.026 458.7 479.474 457.591 480.37 456.695C481.266 455.799 482.354 455.351 483.634 455.351ZM487.794 469.111V500.151H479.474V469.111H487.794ZM514.089 477.495C512.595 476.812 511.209 476.3 509.929 475.959C508.649 475.575 507.283 475.383 505.833 475.383C504.766 475.383 503.934 475.596 503.337 476.023C502.782 476.407 502.505 476.961 502.505 477.687C502.505 478.199 502.846 478.689 503.529 479.159C504.254 479.628 505.406 480.14 506.985 480.695C509.587 481.633 511.998 482.956 514.217 484.663C516.435 486.327 517.545 488.503 517.545 491.191C517.545 494.263 516.435 496.652 514.217 498.359C512.041 500.065 508.841 500.919 504.617 500.919C503.294 500.919 501.523 500.663 499.305 500.151C497.129 499.639 495.315 498.828 493.865 497.719L496.361 491.703C497.854 492.385 499.283 492.919 500.649 493.303C502.057 493.644 503.337 493.815 504.489 493.815C506.025 493.815 507.198 493.601 508.009 493.175C508.819 492.748 509.225 492.193 509.225 491.511C509.225 490.657 508.819 489.889 508.009 489.207C507.198 488.524 505.918 487.905 504.169 487.351C501.694 486.54 499.347 485.388 497.129 483.895C494.953 482.359 493.865 480.311 493.865 477.751C493.865 474.807 494.953 472.503 497.129 470.839C499.305 469.132 502.249 468.279 505.961 468.279C507.283 468.279 508.99 468.556 511.081 469.111C513.171 469.665 515.006 470.476 516.585 471.543L514.089 477.495ZM527.634 455.351C528.956 455.351 530.066 455.799 530.962 456.695C531.9 457.591 532.37 458.7 532.37 460.023C532.37 461.345 531.9 462.455 530.962 463.351C530.066 464.247 528.956 464.695 527.634 464.695C526.354 464.695 525.266 464.247 524.37 463.351C523.474 462.455 523.026 461.345 523.026 460.023C523.026 458.7 523.474 457.591 524.37 456.695C525.266 455.799 526.354 455.351 527.634 455.351ZM531.794 469.111V500.151H523.474V469.111H531.794ZM546.697 472.439C548.105 471.031 549.854 469.921 551.945 469.111C554.078 468.3 555.977 467.895 557.641 467.895C561.865 467.895 564.851 469.132 566.601 471.607C568.393 474.081 569.289 477.111 569.289 480.695V500.151H560.969V481.079C560.969 479.116 560.499 477.623 559.561 476.599C558.622 475.532 557.257 474.999 555.465 474.999C554.27 474.999 553.011 475.319 551.689 475.959C550.409 476.556 549.235 477.26 548.169 478.071V500.151H539.849V469.111H544.201L546.697 472.439ZM593.038 500.919C587.662 500.919 583.416 499.447 580.302 496.503C577.23 493.559 575.694 489.612 575.694 484.663C575.694 479.713 577.08 475.745 579.854 472.759C582.67 469.772 586.488 468.279 591.31 468.279C596.174 468.279 599.736 469.9 601.998 473.143C604.302 476.343 605.454 480.14 605.454 484.535V487.095H584.526C584.91 489.143 585.848 490.785 587.342 492.023C588.835 493.217 590.798 493.815 593.23 493.815C594.638 493.815 595.896 493.644 597.006 493.303C598.158 492.919 599.48 492.385 600.974 491.703L603.406 497.719C601.955 498.828 600.184 499.639 598.094 500.151C596.046 500.663 594.36 500.919 593.038 500.919ZM597.582 481.527C597.155 479.436 596.387 477.9 595.278 476.919C594.168 475.895 592.782 475.383 591.118 475.383C589.411 475.383 587.982 475.916 586.83 476.983C585.678 478.007 584.931 479.521 584.59 481.527H597.582Z" fill="#131313"/>
<path d="M84.7114 381.807C81.2554 380.591 78.6314 379.823 76.8394 379.503C75.0474 379.119 73.0634 378.927 70.8874 378.927C66.9834 378.927 63.7194 380.751 61.0954 384.399C58.4714 387.983 57.1594 392.751 57.1594 398.703C57.1594 404.847 58.5354 409.615 61.2874 413.007C64.0394 416.399 67.4634 418.095 71.5594 418.095C73.9274 418.095 76.1674 417.775 78.2794 417.135C80.3914 416.431 82.2794 415.567 83.9434 414.543L90.5674 427.599C88.0074 429.135 84.9354 430.319 81.3514 431.151C77.8314 431.983 74.4074 432.399 71.0794 432.399C60.4554 432.399 52.4554 429.263 47.0794 422.991C41.7674 416.719 39.1114 408.655 39.1114 398.799C39.1114 388.751 41.9594 380.559 47.6554 374.223C53.3514 367.823 61.0314 364.623 70.6954 364.623C73.9594 364.623 77.3194 365.103 80.7754 366.063C84.2954 366.959 87.3354 368.271 89.8954 369.999L84.7114 381.807ZM127.378 386.799L121.138 404.559H133.906L127.378 386.799ZM136.402 365.871L160.786 429.423L143.602 431.151L138.898 418.287H116.338L111.826 431.151H94.4501L118.93 365.871H136.402ZM185.26 405.423C180.908 403.247 176.556 400.431 172.204 396.975C167.852 393.455 165.676 388.911 165.676 383.343C165.74 377.967 167.948 373.519 172.3 369.999C176.652 366.415 182.54 364.623 189.964 364.623C193.228 364.623 196.588 365.103 200.044 366.063C203.564 366.959 206.604 368.271 209.164 369.999L203.98 381.807C200.524 380.591 197.9 379.823 196.108 379.503C194.316 379.119 192.332 378.927 190.156 378.927C188.172 378.927 186.604 379.407 185.452 380.367C184.3 381.263 183.724 382.319 183.724 383.535C183.724 384.943 184.684 386.191 186.604 387.279C188.588 388.303 190.924 389.519 193.612 390.927C198.22 393.295 202.668 396.271 206.956 399.855C211.244 403.439 213.388 407.887 213.388 413.199C213.388 418.703 211.052 423.279 206.38 426.927C201.772 430.575 195.436 432.399 187.372 432.399C184.044 432.399 180.268 431.919 176.044 430.959C171.884 429.935 168.524 428.655 165.964 427.119L171.724 413.967C173.388 414.991 175.724 415.951 178.732 416.847C181.804 417.679 184.524 418.095 186.892 418.095C189.644 418.095 191.724 417.551 193.132 416.463C194.604 415.375 195.34 414.223 195.34 413.007C195.34 411.855 194.284 410.607 192.172 409.263C190.06 407.919 187.756 406.639 185.26 405.423ZM249.816 386.799L243.576 404.559H256.344L249.816 386.799ZM258.84 365.871L283.224 429.423L266.04 431.151L261.336 418.287H238.776L234.264 431.151H216.888L241.368 365.871H258.84ZM290.898 431.151V365.871H312.69C319.858 365.871 326.13 367.343 331.506 370.287C336.882 373.231 339.57 378.031 339.57 384.687V385.167C339.506 387.471 338.994 389.583 338.034 391.503C337.138 393.359 335.954 395.023 334.482 396.495C337.042 398.287 339.122 400.495 340.722 403.119C342.386 405.679 343.218 408.527 343.218 411.663C343.218 419.151 340.37 424.271 334.674 427.023C328.978 429.775 322.61 431.151 315.57 431.151H290.898ZM312.114 379.599H308.37V390.639H312.306C314.994 390.639 317.202 390.223 318.93 389.391C320.658 388.559 321.522 387.279 321.522 385.551C321.522 383.567 320.69 382.095 319.026 381.135C317.362 380.111 315.058 379.599 312.114 379.599ZM315.762 404.367H308.37V417.423H315.954C318.642 417.423 320.85 416.911 322.578 415.887C324.306 414.863 325.17 413.327 325.17 411.279C325.17 409.103 324.338 407.407 322.674 406.191C321.01 404.975 318.706 404.367 315.762 404.367ZM399.621 431.151H352.773V365.871H370.245V417.423H397.989L399.621 431.151ZM434.503 386.799L428.263 404.559H441.031L434.503 386.799ZM443.527 365.871L467.911 429.423L450.727 431.151L446.023 418.287H423.463L418.951 431.151H401.575L426.055 365.871H443.527ZM475.585 431.151V365.871H491.809L516.961 401.295V365.871H534.433V431.151H518.113L493.057 396.783V431.151H475.585ZM590.586 381.807C587.13 380.591 584.506 379.823 582.714 379.503C580.922 379.119 578.938 378.927 576.762 378.927C572.858 378.927 569.594 380.751 566.97 384.399C564.346 387.983 563.034 392.751 563.034 398.703C563.034 404.847 564.41 409.615 567.162 413.007C569.914 416.399 573.338 418.095 577.434 418.095C579.802 418.095 582.042 417.775 584.154 417.135C586.266 416.431 588.154 415.567 589.818 414.543L596.442 427.599C593.882 429.135 590.81 430.319 587.226 431.151C583.706 431.983 580.282 432.399 576.954 432.399C566.33 432.399 558.33 429.263 552.954 422.991C547.642 416.719 544.986 408.655 544.986 398.799C544.986 388.751 547.834 380.559 553.53 374.223C559.226 367.823 566.906 364.623 576.57 364.623C579.834 364.623 583.194 365.103 586.65 366.063C590.17 366.959 593.21 368.271 595.77 369.999L590.586 381.807ZM633.253 386.799L627.013 404.559H639.781L633.253 386.799ZM642.277 365.871L666.661 429.423L649.477 431.151L644.773 418.287H622.213L617.701 431.151H600.325L624.805 365.871H642.277Z" fill="#131313"/>
<path fill-rule="evenodd" clip-rule="evenodd" d="M2.34509 271.118C8.49494 248.979 25.3046 233.399 64.6637 214.54L98.693 198.14L106.073 214.54C115.913 235.859 111.403 248.979 82.2933 283.008C58.9239 310.888 41.7042 324.417 30.2245 324.417C14.6448 324.417 50.6898 286.705 59.1612 277.174C71.5966 262.42 78.5593 253.725 90.9288 235.876C54.3416 258.008 36.5085 273.317 7.42643 303.571C0.0466024 306.031 -1.75482 286.698 2.34509 271.118Z" fill="#7FCC38"/>
<path d="M7.42643 303.571C15.6262 300.701 87.7521 239.053 90.9288 235.876C54.3416 258.008 36.5085 273.317 7.42643 303.571Z" fill="#6DAD31"/>
<path d="M176.686 193.418C168.896 196.698 157.826 201.208 152.496 203.668C152.496 203.668 144.241 206.611 143.182 207.67C142.123 208.729 154.546 215.558 154.546 215.558C161.106 220.068 171.356 226.628 177.916 229.908C188.166 235.647 188.985 235.237 188.985 227.448C188.985 222.118 192.951 218.058 192.951 218.058C187.047 215.294 168.486 212.213 168.486 211.906C168.486 211.598 173.891 211.906 181.303 212.965C189.112 214.08 195.069 216.142 197.187 215.083C199.305 214.024 197.665 206.573 196.367 199.709C195.069 192.845 196.128 188.61 194.315 186.858C192.503 185.107 184.476 190.138 176.686 193.418Z" fill="#7FCC38"/>
<path d="M347.652 5.04126C344.782 7.9112 342.732 13.2411 342.732 16.931C342.732 21.0309 338.222 24.7209 330.432 25.9508C323.873 27.5908 314.443 32.5107 309.933 37.0206C302.553 44.4005 301.733 50.5503 301.733 102.619V160.018H291.483C277.544 160.018 268.934 174.778 266.064 203.067L263.604 226.027L256.224 205.527C238.594 155.098 170.536 37.4306 160.696 40.3005C158.646 40.7105 157.416 65.72 157.826 95.6494L158.646 149.768L172.996 170.678C180.786 182.568 190.625 194.867 195.135 198.967C202.925 205.937 202.925 205.937 194.725 214.547C185.706 224.387 178.736 246.116 178.736 265.796C178.736 274.816 176.686 279.736 171.766 281.376C151.676 287.115 126.257 303.515 110.267 319.915C100.427 329.755 92.6376 339.594 92.6376 341.234C92.6376 343.284 225.475 344.514 387.831 344.514H683.025L689.585 334.264C695.735 324.835 695.735 323.195 689.585 313.765C677.285 294.905 646.536 305.155 651.866 326.475C654.326 335.084 653.096 336.314 641.616 336.314C630.546 336.314 629.316 335.494 633.826 330.165C637.926 325.245 633.006 317.865 605.947 285.885C561.258 233.817 564.947 236.276 536.658 242.016C523.538 244.886 507.139 250.626 499.759 254.726C484.179 264.156 432.93 323.605 432.93 332.214C432.52 335.494 428.83 330.985 424.32 321.965C416.941 306.795 416.941 304.745 422.681 286.705C442.36 228.077 484.179 195.687 540.348 196.097C572.737 196.097 595.697 206.757 612.916 229.717L623.576 244.066L611.276 234.227C574.377 205.937 523.128 205.937 487.869 235.046C471.879 248.576 452.311 293.265 452.311 303.515C452.311 306.795 460.72 288.322 469.33 274.382C487.78 246.093 503.859 228.487 532.148 221.107C557.568 214.957 573.967 218.647 601.437 235.866C641.616 261.286 644.486 249.396 607.587 210.037C582.987 183.798 530.508 177.648 488.689 196.097C453.02 212.087 412.431 262.106 412.431 290.395C412.431 295.315 411.201 299.415 409.561 299.415C407.511 299.415 406.691 242.426 407.511 172.318C408.331 48.9104 408.331 45.2204 400.131 37.0206C395.621 32.5107 386.191 27.5908 379.631 25.9508C371.842 24.7209 367.332 21.0309 367.332 16.931C367.332 9.96118 359.952 0.121378 355.032 0.121378C353.802 0.121378 350.522 2.17132 347.652 5.04126ZM359.132 18.571C359.132 21.8509 357.492 24.7208 355.032 24.7208C352.982 24.7208 350.932 21.8509 350.932 18.571C350.932 15.2911 352.982 12.4211 355.032 12.4211C357.492 12.4211 359.132 15.2911 359.132 18.571ZM385.371 37.4306C391.111 40.3005 396.441 44.8104 397.671 47.6804C399.311 52.1903 391.521 53.4203 357.082 53.4203C321.003 53.4203 314.033 52.1903 314.033 47.2704C314.033 43.5805 318.133 39.0706 323.463 37.0206C336.582 31.6907 373.482 32.1007 385.371 37.4306ZM190.215 95.2394C201.285 114.099 216.455 141.158 223.835 155.918C240.234 188.307 266.064 254.726 263.604 257.186C260.734 259.646 229.985 221.517 230.805 217.007C231.625 214.957 230.395 213.317 227.935 213.317C225.885 213.317 225.475 210.447 226.705 206.347C228.755 201.427 227.935 200.607 223.835 203.067C220.145 205.527 219.325 204.707 221.785 201.017C223.425 198.147 222.605 194.867 220.145 192.817C217.275 191.177 214.815 187.487 214.405 184.208C213.175 175.598 179.146 111.639 174.636 108.769C169.306 105.489 169.306 109.179 174.636 118.199C181.196 129.679 211.535 202.247 210.305 203.477C209.485 204.297 200.055 192.407 188.986 177.238L168.896 149.768L167.256 105.489C166.436 81.2997 166.436 61.6201 167.666 61.6201C168.486 61.6201 178.736 76.7898 190.215 95.2394ZM379.631 141.568C379.631 192.407 377.991 221.517 375.532 221.517C373.072 221.517 357.492 209.217 341.092 193.637L310.343 166.168V113.689L309.933 61.6201H344.782H379.631V141.568ZM400.131 147.718C400.541 223.157 399.721 233.407 393.981 231.357C384.961 227.667 384.551 61.6201 393.571 61.6201C398.491 61.6201 399.721 75.9698 400.131 147.718ZM325.923 190.357L348.062 212.497L324.693 240.786C302.553 266.616 284.103 283.015 275.494 283.015C270.164 283.015 274.674 188.307 280.414 177.238C288.613 162.478 301.733 166.168 325.923 190.357ZM238.594 244.476C254.174 261.696 267.704 277.686 268.524 280.146C269.344 282.606 264.424 283.425 254.174 281.786C245.154 280.146 226.295 278.916 211.945 278.916H185.706L188.166 258.416C190.625 239.146 201.695 213.317 207.845 213.317C209.075 213.317 223.015 227.257 238.594 244.476ZM398.901 268.256C398.901 292.445 398.081 295.315 391.931 293.265C387.831 292.035 378.401 294.085 370.612 297.775C356.672 304.335 355.852 304.335 332.072 290.805C318.953 283.425 307.063 276.866 306.243 276.456C305.833 275.636 315.673 262.516 328.793 246.936L352.982 218.647L375.941 230.127L398.491 241.196L398.901 268.256ZM523.948 279.736C507.959 296.135 490.329 314.995 484.999 321.555C476.799 330.575 470.649 333.854 455.48 335.084L435.8 336.724L452.61 317.045C482.949 281.376 509.599 257.596 523.538 254.316C553.468 247.346 553.878 249.396 523.948 279.736ZM559.618 269.896C510.829 330.165 504.679 336.314 492.789 336.314C480.899 336.314 480.899 335.904 505.089 310.485C518.618 296.545 536.658 277.276 545.678 267.436C563.717 247.756 576.017 249.396 559.618 269.896ZM600.617 293.675C634.236 333.444 633.006 334.674 564.947 333.034L514.519 331.804L532.148 310.485C541.988 298.595 553.878 284.655 558.798 278.916C564.127 273.176 568.227 267.436 568.227 265.796C568.227 257.596 576.427 264.976 600.617 293.675ZM325.103 296.135C343.962 305.565 349.702 310.485 346.422 314.175C343.552 317.865 337.402 315.815 321.823 305.155C310.343 297.365 298.453 291.215 295.173 291.215C291.893 291.215 289.433 289.165 289.433 287.115C289.433 280.146 298.453 282.606 325.103 296.135ZM252.534 294.495C265.244 300.645 285.333 324.015 285.333 332.214C285.333 334.264 245.564 335.084 196.775 335.084L108.217 334.264L127.077 317.045C137.327 307.615 153.726 297.365 163.566 294.085C188.166 285.065 234.495 285.475 252.534 294.495ZM300.093 303.515C313.623 310.075 328.793 319.915 333.712 325.245L342.732 334.674L320.183 335.084C297.633 335.494 297.223 335.084 289.433 319.915C284.923 311.305 277.134 301.055 272.214 297.775C256.224 286.705 273.444 289.985 300.093 303.515ZM400.951 304.335C407.921 310.485 420.631 328.525 420.631 332.624C420.631 337.954 349.702 334.674 348.062 329.345C346.012 323.605 377.991 299.415 387.831 299.415C391.521 299.415 397.261 301.875 400.951 304.335ZM676.465 314.175C685.075 317.455 685.075 330.575 676.465 333.854C667.855 337.134 662.525 333.444 662.525 324.425C662.525 312.945 666.215 310.485 676.465 314.175Z" fill="#131313"/>
<path d="M252.534 294.495C265.244 300.645 285.333 324.015 285.333 332.214C285.333 334.264 245.564 335.084 196.775 335.084L108.217 334.264L127.077 317.045C137.327 307.615 153.726 297.365 163.566 294.085C188.166 285.065 234.495 285.475 252.534 294.495Z" fill="#FFCB19"/>
<path d="M238.594 244.476C254.174 261.696 267.704 277.686 268.524 280.146C269.344 282.606 264.424 283.425 254.174 281.786C245.154 280.146 226.295 278.916 211.945 278.916H185.706L188.166 258.416C190.625 239.146 201.695 213.317 207.845 213.317C209.075 213.317 223.015 227.257 238.594 244.476Z" fill="#7FCC38"/>
<path d="M300.093 303.515C313.623 310.075 328.793 319.915 333.712 325.245L342.732 334.674L320.183 335.084C297.633 335.494 297.223 335.084 289.433 319.915C284.923 311.305 277.134 301.055 272.214 297.775C256.224 286.705 273.444 289.985 300.093 303.515Z" fill="#FB462E"/>
<path d="M400.951 304.335C407.921 310.485 420.631 328.525 420.631 332.624C420.631 337.954 349.702 334.674 348.062 329.345C346.012 323.605 377.991 299.415 387.831 299.415C391.521 299.415 397.261 301.875 400.951 304.335Z" fill="#7FCC38"/>
<path d="M600.617 293.675C634.236 333.444 633.006 334.674 564.947 333.034L514.519 331.804L532.148 310.485C541.988 298.595 553.878 284.655 558.798 278.916C564.127 273.176 568.227 267.436 568.227 265.796C568.227 257.596 576.427 264.976 600.617 293.675Z" fill="#FB462E"/>
<path d="M559.618 269.896C510.829 330.165 504.679 336.314 492.789 336.314C480.899 336.314 480.899 335.904 505.089 310.485C518.618 296.545 536.658 277.276 545.678 267.436C563.717 247.756 576.017 249.396 559.618 269.896Z" fill="#FFCB19"/>
<path d="M523.948 279.736C507.959 296.135 490.329 314.995 484.999 321.555C476.799 330.575 470.649 333.854 455.48 335.084L435.8 336.724L452.61 317.045C482.949 281.376 509.599 257.596 523.538 254.316C553.468 247.346 553.878 249.396 523.948 279.736Z" fill="#FB462E"/>
<path d="M452.311 303.515C441.304 316.947 432.93 328.734 432.93 332.214C432.52 335.494 428.83 330.985 424.32 321.965C416.941 306.795 416.941 304.745 422.681 286.705C442.36 228.077 484.179 195.687 540.348 196.097C572.737 196.097 595.697 206.757 612.916 229.717L623.576 244.066L611.276 234.227C574.377 205.937 523.128 205.937 487.869 235.046C471.879 248.576 452.311 293.265 452.311 303.515Z" fill="#7FCC38"/>
<path d="M379.631 141.568C379.631 192.407 377.991 221.517 375.532 221.517C373.072 221.517 357.492 209.217 341.092 193.637L310.343 166.168V113.689L309.933 61.6201H344.782H379.631V141.568Z" fill="#FFCB19"/>
<path d="M400.131 147.718C400.541 223.157 399.721 233.407 393.981 231.357C384.961 227.667 384.551 61.6201 393.571 61.6201C398.491 61.6201 399.721 75.9698 400.131 147.718Z" fill="#FB462E"/>
<path d="M190.215 95.2394C201.285 114.099 216.455 141.158 223.835 155.918C240.234 188.307 266.064 254.726 263.604 257.186C260.734 259.646 229.985 221.517 230.805 217.007C231.625 214.957 230.395 213.317 227.935 213.317C225.885 213.317 225.475 210.447 226.705 206.347C228.755 201.427 227.935 200.607 223.835 203.067C220.145 205.527 219.325 204.707 221.785 201.017C223.425 198.147 222.605 194.867 220.145 192.817C217.275 191.177 214.815 187.487 214.405 184.208C213.175 175.598 179.146 111.639 174.636 108.769C169.306 105.489 169.306 109.179 174.636 118.199C181.196 129.679 211.535 202.247 210.305 203.477C209.485 204.297 200.055 192.407 188.986 177.238L168.896 149.768L167.256 105.489C166.436 81.2997 166.436 61.6201 167.666 61.6201C168.486 61.6201 178.736 76.7898 190.215 95.2394Z" fill="#7FCC38"/>
<path d="M325.923 190.357L348.062 212.497L324.693 240.786C302.553 266.616 284.103 283.015 275.494 283.015C270.164 283.015 274.674 188.307 280.414 177.238C288.613 162.478 301.733 166.168 325.923 190.357Z" fill="#7FCC38"/>
<path d="M385.371 37.4306C391.111 40.3005 396.441 44.8104 397.671 47.6804C399.311 52.1903 391.521 53.4203 357.082 53.4203C321.003 53.4203 314.033 52.1903 314.033 47.2704C314.033 43.5805 318.133 39.0706 323.463 37.0206C336.582 31.6907 373.482 32.1007 385.371 37.4306Z" fill="#7FCC38"/>
<path d="M359.132 18.571C359.132 21.8509 357.492 24.7208 355.032 24.7208C352.982 24.7208 350.932 21.8509 350.932 18.571C350.932 15.2911 352.982 12.4211 355.032 12.4211C357.492 12.4211 359.132 15.2911 359.132 18.571Z" fill="#FFCB19"/>
<path d="M325.103 296.135C343.962 305.565 349.702 310.485 346.422 314.175C343.552 317.865 337.402 315.815 321.823 305.155C310.343 297.365 298.453 291.215 295.173 291.215C291.893 291.215 289.433 289.165 289.433 287.115C289.433 280.146 298.453 282.606 325.103 296.135Z" fill="#FFCB19"/>
<path d="M398.901 268.256C398.901 292.445 398.081 295.315 391.931 293.265C387.831 292.035 378.401 294.085 370.612 297.775C356.672 304.335 355.852 304.335 332.072 290.805C318.953 283.425 307.063 276.866 306.243 276.456C305.833 275.636 315.673 262.516 328.793 246.936L352.982 218.647L375.941 230.127L398.491 241.196L398.901 268.256Z" fill="#FFCB19"/>
<path d="M676.465 314.175C685.075 317.455 685.075 330.575 676.465 333.854C667.855 337.134 662.525 333.444 662.525 324.425C662.525 312.945 666.215 310.485 676.465 314.175Z" fill="#FFCB19"/>
<path d="M464.089 57.5201C417.76 109.999 418.58 108.359 418.17 144.438C417.76 162.068 418.99 176.418 420.63 176.418C421.86 176.418 431.7 171.088 442.36 164.118C465.319 149.768 476.389 129.269 493.608 69.8199C512.058 7.91113 509.188 6.68117 464.089 57.5201ZM480.489 81.2996C463.269 131.729 456.709 144.848 442.77 153.868C437.03 157.558 432.93 159.198 433.75 157.558C453.019 120.249 471.879 70.6398 463.679 78.8397C462.039 80.4796 453.839 96.4693 445.229 114.919C425.96 156.328 423.91 158.378 427.19 132.959C429.65 116.149 434.57 107.539 459.169 77.1997C475.159 57.5201 489.509 41.5304 491.148 41.5304C492.788 41.1205 487.869 59.1601 480.489 81.2996Z" fill="#131313"/>
<path d="M480.489 81.2996C463.269 131.729 456.709 144.848 442.77 153.868C437.03 157.558 432.93 159.198 433.75 157.558C453.019 120.249 471.879 70.6398 463.679 78.8397C462.039 80.4796 453.839 96.4693 445.229 114.919C425.96 156.328 423.91 158.378 427.19 132.959C429.65 116.149 434.57 107.539 459.169 77.1997C475.159 57.5201 489.509 41.5304 491.148 41.5304C492.788 41.1205 487.869 59.1601 480.489 81.2996Z" fill="#7FCC38"/>
<path d="M219.735 47.2705C215.225 52.6004 216.045 55.0603 223.015 62.8501C227.525 67.77 239.004 87.8596 248.024 107.539C257.044 127.629 265.654 143.618 266.884 143.618C270.984 143.618 264.014 121.889 251.304 94.4195C244.744 79.6598 239.414 63.2601 239.824 57.9303C240.644 42.7606 228.755 36.6107 219.735 47.2705Z" fill="#131313"/>
<path d="M584.627 111.229C532.968 122.709 480.489 149.358 448.1 181.337C429.24 199.377 420.63 211.267 418.99 220.697L416.53 234.226L441.95 213.727C484.589 179.287 556.337 149.358 623.166 138.698C639.155 136.238 653.915 132.548 655.555 130.908C657.605 129.268 655.965 122.299 652.685 115.329C644.485 100.159 636.286 99.339 584.627 111.229ZM643.665 116.969C646.535 124.348 647.355 123.939 601.026 133.368C543.218 144.848 486.639 168.628 447.28 198.557L430.88 210.857L445.23 195.277C478.029 160.018 532.558 132.548 596.926 118.609C640.795 109.589 640.795 109.589 643.665 116.969Z" fill="#131313"/>
<path d="M643.665 116.969C646.535 124.348 647.355 123.939 601.026 133.368C543.218 144.848 486.639 168.628 447.28 198.557L430.88 210.857L445.23 195.277C478.029 160.018 532.558 132.548 596.926 118.609C640.795 109.589 640.795 109.589 643.665 116.969Z" fill="#FB462E"/>
<path d="M635.056 187.078C627.676 190.358 621.526 194.868 621.526 196.918C621.526 202.248 620.706 202.248 643.256 194.458C653.916 190.768 662.526 186.258 662.526 184.208C662.526 178.878 650.636 180.108 635.056 187.078Z" fill="#FB462E"/>
<path d="M132.593 156.842C132.593 162.69 127.852 167.431 122.003 167.431C116.155 167.431 111.414 162.69 111.414 156.842C111.414 150.994 116.155 146.253 122.003 146.253C127.852 146.253 132.593 150.994 132.593 156.842Z" fill="#7FCC38"/>
<path d="M681.794 243.656C680.564 246.936 682.204 251.856 685.484 254.726C690.404 258.826 692.864 258.416 698.194 253.496C701.474 249.806 703.114 244.886 701.884 242.426C697.784 235.867 684.254 236.687 681.794 243.656Z" fill="#FB462E"/>
<path d="M428.831 285.885C428.831 287.935 432.521 293.265 437.031 297.365C441.541 301.465 445.231 303.105 445.231 300.645C445.231 298.595 441.541 293.265 437.031 289.165C432.521 285.065 428.831 283.426 428.831 285.885Z" fill="#131313"/>
<path d="M88.5376 311.305C88.5376 313.355 91.4075 316.225 95.0975 317.455C103.707 320.735 103.707 320.735 106.577 313.765C108.217 309.255 106.167 307.615 98.7874 307.615C93.0475 307.615 88.5376 309.255 88.5376 311.305Z" fill="#FFCB19"/>
<path d="M68.038 323.605C65.1681 329.755 65.5781 333.035 70.498 337.954C79.5178 346.974 88.2539 342.292 92.3538 333.682C96.4537 325.072 90.326 323.605 88.1276 319.505C84.9414 313.563 72.9579 314.995 68.038 323.605ZM86.4876 332.215C85.2577 334.265 81.1577 336.314 77.8778 336.314C74.5979 336.314 72.1379 334.265 72.1379 332.215C72.1379 329.755 75.8279 328.115 80.7478 328.115C85.2577 328.115 87.7176 329.755 86.4876 332.215Z" fill="#FFCB19"/>
</svg>
